<?xml version="1.0" encoding="UTF-8"?>
<svg version="1.1" xmlns="http://www.w3.org/2000/svg" width="612" height="408">
<path d="M0 0 C6.75793363 5.18922172 12.78532164 11.26953762 18 18 C18 18.66 18 19.32 18 20 C18.66 20 19.32 20 20 20 C29.50701528 32.84731794 33.59534299 50.49652936 33.4375 66.25 C33.42847656 67.34046631 33.41945312 68.43093262 33.41015625 69.55444336 C32.98967072 89.29536299 25.95869203 107.7702654 12 122 C-7.05459105 139.60174833 -26.77591653 143.80890686 -52 143 C-62.40065551 142.3637246 -71.79535306 137.60232347 -81 133 C-81 132.34 -81 131.68 -81 131 C-81.72703125 130.75121094 -82.4540625 130.50242187 -83.203125 130.24609375 C-97.88601496 123.70441512 -106.68433342 107.32140255 -112.22216797 93.08300781 C-117.63796187 78.57969533 -118.13373672 63.08346773 -115 48 C-114.82726562 47.16597656 -114.65453125 46.33195312 -114.4765625 45.47265625 C-110.92487885 31.61186485 -103.13656155 18.97916153 -93 9 C-91.67406246 8.31874244 -90.34287117 7.64723971 -89 7 C-88.67 6.01 -88.34 5.02 -88 4 C-62.70394694 -15.69545091 -26.81452544 -17.91329445 0 0 Z M-78 22 C-79.3303125 23.2375 -79.3303125 23.2375 -80.6875 24.5 C-82.97217828 26.96992246 -84.00099201 28.82133822 -85 32 C-85.66 32 -86.32 32 -87 32 C-92.94498838 41.64842376 -96.58635556 51.62477796 -97 63 C-97.02835938 63.74894531 -97.05671875 64.49789062 -97.0859375 65.26953125 C-97.12535746 67.52041093 -97.08459846 69.75045007 -97 72 C-96.97164062 72.82628906 -96.94328125 73.65257812 -96.9140625 74.50390625 C-96.5432674 80.28654406 -95.40362329 85.21145413 -92 90 C-88.25184926 92.49876716 -85.33446513 92.49145423 -81 92 C-74.2135513 89.98920039 -69.33895927 85.52253894 -64 81 C-64.15726563 80.42507812 -64.31453125 79.85015625 -64.4765625 79.2578125 C-66.11312712 72.19860091 -65.09031825 66.59021323 -61.6328125 60.23828125 C-58.40620718 55.81520745 -54.09338515 53.69779505 -49 52 C-41.44358455 51.49623897 -36.22563174 53.05934258 -30.1875 57.8125 C-25.38081511 62.24197868 -24.88837469 66.52208328 -24.625 72.875 C-24.72685666 79.18227795 -26.2074368 83.89882469 -30.44921875 88.609375 C-35.47032512 93.11192882 -40.9177301 93.32843382 -47.3515625 93.30078125 C-50.19509543 92.97784314 -52.40294534 92.1766439 -55 91 C-55.58265625 91.50789063 -56.1653125 92.01578125 -56.765625 92.5390625 C-63.09139484 97.85032208 -69.51732815 101.55489889 -77 105 C-78.33598579 105.66133516 -79.67046876 106.32578274 -81 107 C-78.56095721 114.31712836 -70.14977018 118.3597609 -63.6640625 121.71875 C-48.50732928 129.00820527 -34.24616868 129.46284547 -18 125 C-14.48855332 123.58902858 -11.25528233 121.92186861 -8 120 C-6.96875 119.443125 -5.9375 118.88625 -4.875 118.3125 C-4.25625 117.879375 -3.6375 117.44625 -3 117 C-3 116.34 -3 115.68 -3 115 C-2.40058594 114.90203125 -1.80117187 114.8040625 -1.18359375 114.703125 C1.44261555 113.85747621 2.25030229 112.89989182 3.9375 110.75 C5.724862 108.52811641 7.36716677 106.6695499 9.5 104.75 C19.99281816 93.20790002 23.54026888 77.79105909 23.2421875 62.60546875 C22.37378135 49.67742236 18.15108037 38.72662056 11 28 C10.34 28 9.68 28 9 28 C8.773125 27.443125 8.54625 26.88625 8.3125 26.3125 C2.42490054 15.93911047 -10.94809192 8.98392706 -22.0078125 5.765625 C-42.48682131 1.21943306 -63.46390567 6.77053149 -78 22 Z " fill="#3855F3" transform="translate(179,133)"/>
<path d="M0 0 C0.99 1.485 0.99 1.485 2 3 C2.99 3.33 3.98 3.66 5 4 C5 3.01 5 2.02 5 1 C10.56039857 1.49646416 16.1071473 2.10876886 21 5 C22.5 7.6875 22.5 7.6875 23 10 C20.84267191 12.15732809 19.88177557 12.48294825 17 13.1875 C15.948125 13.45626953 15.948125 13.45626953 14.875 13.73046875 C13 14 13 14 11 13 C8.67149456 12.63446206 6.33698524 12.30668474 4 12 C-0.66666667 11.33333333 -5.33333333 10.66666667 -10 10 C-10 10.66 -10 11.32 -10 12 C-16.625 13 -16.625 13 -20 13 C-20.33 13.66 -20.66 14.32 -21 15 C-22.92578125 16 -22.92578125 16 -25.3125 17 C-27.62760613 17.97961515 -29.88757644 18.93992953 -32.10546875 20.125 C-34 21 -34 21 -37 21 C-37.103125 21.763125 -37.20625 22.52625 -37.3125 23.3125 C-38.04711194 26.18416484 -38.6716065 27.23042094 -41 29 C-41.66 29 -42.32 29 -43 29 C-43.66 30.32 -44.32 31.64 -45 33 C-45.66 33 -46.32 33 -47 33 C-47.28875 33.5775 -47.5775 34.155 -47.875 34.75 C-49.4375 37.875 -49.4375 37.875 -51 41 C-51.66 41 -52.32 41 -53 41 C-53.268125 41.845625 -53.53625 42.69125 -53.8125 43.5625 C-55.26383119 47.76372187 -57.03279772 51.8043133 -58.82421875 55.87109375 C-61.02504649 61.20675904 -61.71097978 66.25572318 -62 72 C-62.04125 72.69609375 -62.0825 73.3921875 -62.125 74.109375 C-62.37793302 82.51939795 -61.97658586 93.49176096 -58 101 C-52.11981331 102.96006223 -46.00309571 102.00051595 -40 101 C-40.34933594 101.51949219 -40.69867188 102.03898437 -41.05859375 102.57421875 C-44.54055504 107.87724314 -44.54055504 107.87724314 -46 114 C-46.66 114 -47.32 114 -48 114 C-48 114.66 -48 115.32 -48 116 C-48.66 116 -49.32 116 -50 116 C-47.77721999 119.0776954 -45.98568924 121.00908183 -42.75 123.0625 C-41.38875 124.0215625 -41.38875 124.0215625 -40 125 C-40 126.32 -40 127.64 -40 129 C-39.01 128.67 -38.02 128.34 -37 128 C-36.01 128.99 -36.01 128.99 -35 130 C-37.64738916 131.4606285 -38.89448334 132 -42 132 C-42.33 133.32 -42.66 134.64 -43 136 C-42.34 136.33 -41.68 136.66 -41 137 C-41.33 137.99 -41.66 138.98 -42 140 C-43.32 140 -44.64 140 -46 140 C-46.33 139.01 -46.66 138.02 -47 137 C-47.66 137 -48.32 137 -49 137 C-56.43581083 135.93774131 -60.15690462 131.45738505 -65 126 C-65.53625 125.42636719 -66.0725 124.85273438 -66.625 124.26171875 C-79.46579869 109.08305726 -84.15087483 86.52892747 -82.71484375 67.15234375 C-82.27145941 63.72822436 -81.70221434 60.3799353 -81 57 C-80.82726562 56.16597656 -80.65453125 55.33195312 -80.4765625 54.47265625 C-76.92487885 40.61186485 -69.13656155 27.97916153 -59 18 C-57.67406246 17.31874244 -56.34287117 16.64723971 -55 16 C-54.67 15.01 -54.34 14.02 -54 13 C-51.67684969 12.2986716 -49.34210921 11.63514826 -47 11 C-46.319375 10.46375 -45.63875 9.9275 -44.9375 9.375 C-42.27693494 7.48685705 -40.2060291 8 -37 8 C-34.78963709 6.69655172 -34.78963709 6.69655172 -33 5 C-29.32561113 2.55040742 -27.33163807 2.92264932 -23 3 C-22.01 2.67 -21.02 2.34 -20 2 C-18.68 2 -17.36 2 -16 2 C-16 1.34 -16 0.68 -16 0 C-10.48578985 -1.22538003 -5.54359705 -1.12925125 0 0 Z " fill="#1F70F5" transform="translate(145,124)"/>
<path d="M0 0 C6.75793363 5.18922172 12.78532164 11.26953762 18 18 C18 18.66 18 19.32 18 20 C18.66 20 19.32 20 20 20 C29.50701528 32.84731794 33.59534299 50.49652936 33.4375 66.25 C33.42847656 67.34046631 33.41945313 68.43093262 33.41015625 69.55444336 C32.98967072 89.29536299 25.95869203 107.7702654 12 122 C3.14105559 130.18348237 -7.85489184 138.67186425 -20 141 C-22.3203125 140.09375 -22.3203125 140.09375 -24 139 C-22.35 139 -20.7 139 -19 139 C-19 135.7 -19 132.4 -19 129 C-19.99 128.67 -20.98 128.34 -22 128 C-22.33 128.66 -22.66 129.32 -23 130 C-23.33 129.01 -23.66 128.02 -24 127 C-24.66 126.67 -25.32 126.34 -26 126 C-25.3709375 125.82984375 -24.741875 125.6596875 -24.09375 125.484375 C-19.02326782 124.04875655 -14.41881151 122.38348844 -9.76171875 119.91796875 C-7.56950212 118.77568293 -5.31306023 117.86739759 -3 117 C-3 116.34 -3 115.68 -3 115 C-2.38125 114.9175 -1.7625 114.835 -1.125 114.75 C1.14390805 114.21402157 1.14390805 114.21402157 2 112.1875 C2.33 111.465625 2.66 110.74375 3 110 C5 107.75 5 107.75 7 106 C7.66 106 8.32 106 9 106 C9.26941406 105.44957031 9.53882813 104.89914063 9.81640625 104.33203125 C11.12842217 101.74697019 12.52905452 99.22126834 13.9375 96.6875 C22.33592267 81.21887236 24.16446242 65.79643353 20.12890625 48.54296875 C18.46903194 43.33360544 16.10485943 38.67213265 13.5234375 33.86328125 C12 31 12 31 11 28 C10.34 28 9.68 28 9 28 C8.01 26.4840625 8.01 26.4840625 7 24.9375 C3.62269991 20.00144602 -1.01367874 17.16090096 -6 14 C-7.093125 13.278125 -8.18625 12.55625 -9.3125 11.8125 C-22.80373265 4.64819025 -39.46439465 3.46124812 -54.125 7.625 C-60.07582758 9.78752296 -65.58173972 12.74252889 -71 16 C-71 14.68 -71 13.36 -71 12 C-68.89915791 10.99303432 -66.79420511 9.9946411 -64.6875 9 C-63.51574219 8.443125 -62.34398437 7.88625 -61.13671875 7.3125 C-58 6 -58 6 -55 6 C-54.67 5.01 -54.34 4.02 -54 3 C-50.7 3 -47.4 3 -44 3 C-44 2.34 -44 1.68 -44 1 C-25.35344828 2.21551724 -25.35344828 2.21551724 -20 4 C-16.37719196 3.26258366 -16.37719196 3.26258366 -13 2 C-12.67 1.34 -12.34 0.68 -12 0 C-12.495 -1.485 -12.495 -1.485 -13 -3 C-18.21261579 -5.28623499 -23.46534154 -6.71516857 -29 -8 C-29 -7.01 -29 -6.02 -29 -5 C-31.38564077 -5.57584432 -33.66682784 -6.22227595 -36 -7 C-36 -7.66 -36 -8.32 -36 -9 C-39.62885324 -9.15149298 -39.62885324 -9.15149298 -43 -8 C-43 -8.66 -43 -9.32 -43 -10 C-45.31 -9.67 -47.62 -9.34 -50 -9 C-50 -8.34 -50 -7.68 -50 -7 C-51.32 -7 -52.64 -7 -54 -7 C-54.33 -6.34 -54.66 -5.68 -55 -5 C-56.83380676 -5 -58.66736164 -5.05954863 -60.5 -5.125 C-64.05836224 -5.39591678 -64.05836224 -5.39591678 -66 -3 C-66.680625 -2.835 -67.36125 -2.67 -68.0625 -2.5 C-68.701875 -2.335 -69.34125 -2.17 -70 -2 C-70.33 -1.34 -70.66 -0.68 -71 0 C-71.886875 -0.0825 -72.77375 -0.165 -73.6875 -0.25 C-77.72768551 0.05491966 -78.93424515 1.49898947 -82 4 C-84.1484375 3.62109375 -84.1484375 3.62109375 -86 3 C-78.55346828 -2.9537938 -71.10402173 -6.27776787 -62 -9 C-60.40478516 -9.48146484 -60.40478516 -9.48146484 -58.77734375 -9.97265625 C-38.84519578 -15.2829559 -17.15232534 -11.45851546 0 0 Z " fill="#AE36F2" transform="translate(179,133)"/>
<path d="M0 0 C7.21736488 5.70979031 10.85822241 12.6426507 12.0625 21.75 C12.38778741 30.3802815 10.39981663 37.27918131 5.625 44.44140625 C4.965 44.44140625 4.305 44.44140625 3.625 44.44140625 C3.41875 45.01890625 3.2125 45.59640625 3 46.19140625 C0.39827677 50.44877154 -3.39639137 52.103955 -8 53.69140625 C-17.40996008 55.69237477 -26.28975091 55.23350081 -34.5 50.1171875 C-41.88098219 44.94778637 -44.93187264 39.32833979 -46.8984375 30.59765625 C-48.29389761 21.35559255 -46.28433716 13.14723072 -41.0234375 5.46875 C-31.37122294 -6.68684641 -12.78912986 -8.39286647 0 0 Z M-29.6875 11.19140625 C-33.66752536 16.49810673 -35.29056691 21.85684973 -34.375 28.44140625 C-33.07471106 33.97519407 -31.30567833 37.31463463 -26.375 40.44140625 C-22.02589998 42.9073908 -18.28970866 43.21613865 -13.375 42.44140625 C-8.37620228 40.473514 -4.37562606 37.40513882 -2.00390625 32.5234375 C-0.45144792 27.3839326 -0.32360854 22.12580998 -2.29296875 17.09765625 C-5.5254525 11.49049997 -9.43848918 8.2571037 -15.75 6.50390625 C-21.2210412 6.40957795 -25.33324787 7.89629653 -29.6875 11.19140625 Z " fill="#253347" transform="translate(424.375,175.55859375)"/>
<path d="M0 0 C3.96 0 7.92 0 12 0 C12 6.6 12 13.2 12 20 C14.64 18.68 17.28 17.36 20 16 C25.67928834 15.27718148 30.92399133 16.39739192 36 19 C41.00682955 23.0267693 43.23741837 27.70567541 44 34 C44.62426541 41.8657441 43.15671676 48.65098431 38.1875 54.9375 C33.84515925 59.5128444 29.63413988 60.09668452 23.5 60.3125 C18.97308202 60.24456535 15.86984276 59.51016828 12 57 C12 57.66 12 58.32 12 59 C10.37585622 59.19477739 8.75063577 59.38059458 7.125 59.5625 C5.76761719 59.71912109 5.76761719 59.71912109 4.3828125 59.87890625 C2 60 2 60 0 59 C0 39.53 0 20.06 0 0 Z M15 29 C12.14937616 32.46147181 11.47529506 35.51412048 11.63671875 40 C12.23461509 43.29164434 13.90099046 45.46884144 16 48 C19.25128121 49.6256406 22.49781865 49.68302581 26 49 C29.24245417 46.36550598 30.66082457 44.85894225 31.40625 40.7734375 C31.59467447 36.0785279 31.05825088 32.73786219 28 29 C23.7142017 26.14280113 19.28628379 25.89613932 15 29 Z " fill="#27364A" transform="translate(468,170)"/>
<path d="M0 0 C4.2939334 4.10724064 5.64496506 7.08275106 6 13 C4.37548581 13.33569297 2.75037083 13.6684796 1.125 14 C0.22007812 14.185625 -0.68484375 14.37125 -1.6171875 14.5625 C-4 15 -4 15 -6 15 C-6.5775 14.030625 -7.155 13.06125 -7.75 12.0625 C-9.71264916 8.79586782 -9.71264916 8.79586782 -12.9375 7.9375 C-16.66824839 8.01363772 -18.27076654 8.43130968 -21 11 C-21.41725678 14.62599422 -21.41725678 14.62599422 -21 18 C-19.71609375 18.19142578 -19.71609375 18.19142578 -18.40625 18.38671875 C-10.70578105 19.77315639 -1.88484111 21.57975161 4 27 C7.24470204 32.62415021 7.9642961 37.8961352 6.49609375 44.14453125 C4.99448863 48.76947503 3.2733953 51.41608656 -1 54 C-8.39012374 56.88725568 -16.92431711 57.38564633 -24.5 54.75 C-30.91362719 51.54318641 -33.6597527 48.89757098 -36 42 C-36 40.68 -36 39.36 -36 38 C-32.37 37.34 -28.74 36.68 -25 36 C-24.195625 37.32 -23.39125 38.64 -22.5625 40 C-20.22771842 43.15338351 -20.22771842 43.15338351 -16.703125 44.6015625 C-12.55029998 44.64227647 -10.52942394 44.35294929 -7 42 C-6.08571661 40.09291157 -6.08571661 40.09291157 -6 38 C-8.19450998 34.70823503 -8.59264674 34.53445052 -12.17578125 33.53515625 C-13.41811523 33.17067383 -13.41811523 33.17067383 -14.68554688 32.79882812 C-16.42496878 32.31127269 -18.16455009 31.82428554 -19.90429688 31.33789062 C-25.79973173 29.60716265 -29.74570976 27.64296097 -33.8125 22.875 C-35.86757953 17.89954429 -35.86713628 12.86595889 -34.30859375 7.71484375 C-32.18817868 2.96830791 -29.69340209 0.44448025 -25 -2 C-17.27106236 -4.55346277 -6.91609812 -4.41453072 0 0 Z " fill="#223146" transform="translate(270,174)"/>
<path d="M0 0 C3.63 0 7.26 0 11 0 C11.33 10.56 11.66 21.12 12 32 C15.53419935 27.44084379 15.53419935 27.44084379 19.06005859 22.87524414 C19.50172363 22.30926514 19.94338867 21.74328613 20.3984375 21.16015625 C20.84880371 20.57886963 21.29916992 19.99758301 21.76318359 19.39868164 C23 18 23 18 25 17 C27.2072923 16.92907158 29.41667452 16.91584975 31.625 16.9375 C32.81351562 16.94652344 34.00203125 16.95554688 35.2265625 16.96484375 C36.14179688 16.97644531 37.05703125 16.98804688 38 17 C37.1875 19.4375 37.1875 19.4375 36 22 C35.01 22.33 34.02 22.66 33 23 C31.95494265 24.83925399 31.95494265 24.83925399 31 27 C29.98739559 28.43758346 28.94487352 29.8545128 27.875 31.25 C27.33617187 31.95640625 26.79734375 32.6628125 26.2421875 33.390625 C25.83226562 33.92171875 25.42234375 34.4528125 25 35 C27.92049514 40.00243226 31.16903982 44.76739212 34.41601562 49.56054688 C36.47971695 52.62987845 38.47588148 55.61594023 40 59 C34.99154721 59.9015215 29.87899553 60.78141493 25 59 C20.423768 55.01808385 17.70050357 49.33746589 15 44 C14.01 44.66 13.02 45.32 12 46 C11.41407366 49.11610554 11.41407366 49.11610554 11.3125 52.625 C11.24675781 53.81351563 11.18101562 55.00203125 11.11328125 56.2265625 C11.07589844 57.14179688 11.03851563 58.05703125 11 59 C7.37 59 3.74 59 0 59 C0 39.53 0 20.06 0 0 Z " fill="#334052" transform="translate(281,170)"/>
<path d="M0 0 C4.29 0 8.58 0 13 0 C13 3.3 13 6.6 13 10 C15.97 10 18.94 10 22 10 C22 13.3 22 16.6 22 20 C19.03 20 16.06 20 13 20 C13.33 26.93 13.66 33.86 14 41 C16.64 41.33 19.28 41.66 22 42 C22 45.3 22 48.6 22 52 C16.80388584 53.73203805 11.86639515 53.63387005 6.6875 51.875 C3.48733184 49.64232454 1.43714472 47.61420553 0 44 C-0.48299572 39.86225059 -0.37735082 35.78349418 -0.25 31.625 C-0.23195313 30.50738281 -0.21390625 29.38976562 -0.1953125 28.23828125 C-0.14835555 25.4912997 -0.08269468 22.74609953 0 20 C-1.98 20 -3.96 20 -6 20 C-6 16.7 -6 13.4 -6 10 C-4.02 10 -2.04 10 0 10 C0 6.7 0 3.4 0 0 Z " fill="#162539" transform="translate(537,177)"/>
<path d="M0 0 C4.67443181 3.64708416 8.86364971 7.76322239 13 12 C13.61617188 12.55300781 14.23234375 13.10601562 14.8671875 13.67578125 C16 15 16 15 15.8125 17.875 C15.07366138 20.71668701 14.18383281 23.31664564 13 26 C12.34 26 11.68 26 11 26 C11 25.34 11 24.68 11 24 C10.38125 23.938125 9.7625 23.87625 9.125 23.8125 C8.42375 23.544375 7.7225 23.27625 7 23 C6.29788106 21.34795544 5.63028587 19.68076231 5 18 C3.13712252 17.37904084 1.26309196 16.78945485 -0.625 16.25 C-3.41874196 15.21528075 -5.53589471 14.1363272 -8.0625 12.625 C-21.93990833 4.89493949 -38.80515773 3.27401854 -54.125 7.625 C-60.07582758 9.78752296 -65.58173972 12.74252889 -71 16 C-71 14.68 -71 13.36 -71 12 C-68.89915791 10.99303432 -66.79420511 9.9946411 -64.6875 9 C-63.51574219 8.443125 -62.34398437 7.88625 -61.13671875 7.3125 C-58 6 -58 6 -55 6 C-54.67 5.01 -54.34 4.02 -54 3 C-50.7 3 -47.4 3 -44 3 C-44 2.34 -44 1.68 -44 1 C-25.35344828 2.21551724 -25.35344828 2.21551724 -20 4 C-16.37719196 3.26258366 -16.37719196 3.26258366 -13 2 C-12.67 1.34 -12.34 0.68 -12 0 C-12.495 -1.485 -12.495 -1.485 -13 -3 C-18.21261579 -5.28623499 -23.46534154 -6.71516857 -29 -8 C-29 -7.01 -29 -6.02 -29 -5 C-31.38564077 -5.57584432 -33.66682784 -6.22227595 -36 -7 C-36 -7.66 -36 -8.32 -36 -9 C-39.62885324 -9.15149298 -39.62885324 -9.15149298 -43 -8 C-43 -8.66 -43 -9.32 -43 -10 C-45.31 -9.67 -47.62 -9.34 -50 -9 C-50 -8.34 -50 -7.68 -50 -7 C-51.32 -7 -52.64 -7 -54 -7 C-54.33 -6.34 -54.66 -5.68 -55 -5 C-56.83380676 -5 -58.66736164 -5.05954863 -60.5 -5.125 C-64.05836224 -5.39591678 -64.05836224 -5.39591678 -66 -3 C-66.680625 -2.835 -67.36125 -2.67 -68.0625 -2.5 C-68.701875 -2.335 -69.34125 -2.17 -70 -2 C-70.33 -1.34 -70.66 -0.68 -71 0 C-71.886875 -0.0825 -72.77375 -0.165 -73.6875 -0.25 C-77.72768551 0.05491966 -78.93424515 1.49898947 -82 4 C-84.1484375 3.62109375 -84.1484375 3.62109375 -86 3 C-78.55346828 -2.9537938 -71.10402173 -6.27776787 -62 -9 C-60.40478516 -9.48146484 -60.40478516 -9.48146484 -58.77734375 -9.97265625 C-38.88885376 -15.27132459 -17.10288579 -11.49134496 0 0 Z " fill="#943AEF" transform="translate(179,133)"/>
<path d="M0 0 C0.495 1.485 0.495 1.485 1 3 C1.99 3.33 2.98 3.66 4 4 C3.67 4.53625 3.34 5.0725 3 5.625 C1.77300796 8.5391061 1.85766714 10.86867708 2 14 C1.34 14 0.68 14 0 14 C-1.06542272 16.48598634 -1.95693436 18.73160098 -2.38671875 21.41015625 C-4.88505518 31.96045595 -17.41953322 39.88320623 -26 45.3125 C-30.98207587 48.15371579 -36.33566158 50.91418433 -42 52 C-44.3203125 51.09375 -44.3203125 51.09375 -46 50 C-44.35 50 -42.7 50 -41 50 C-41 46.7 -41 43.4 -41 40 C-41.99 39.67 -42.98 39.34 -44 39 C-44.33 39.66 -44.66 40.32 -45 41 C-45.495 39.515 -45.495 39.515 -46 38 C-46.66 37.67 -47.32 37.34 -48 37 C-47.3709375 36.82984375 -46.741875 36.6596875 -46.09375 36.484375 C-41.02326782 35.04875655 -36.41881151 33.38348844 -31.76171875 30.91796875 C-29.56950212 29.77568293 -27.31306023 28.86739759 -25 28 C-25 27.34 -25 26.68 -25 26 C-24.071875 25.87625 -24.071875 25.87625 -23.125 25.75 C-20.85609195 25.21402157 -20.85609195 25.21402157 -20 23.1875 C-19.67 22.465625 -19.34 21.74375 -19 21 C-17 18.75 -17 18.75 -15 17 C-14.34 17 -13.68 17 -13 17 C-12.71125 16.4225 -12.4225 15.845 -12.125 15.25 C-11.08333333 13.16666667 -10.04166667 11.08333333 -9 9 C-7.68 9 -6.36 9 -5 9 C-4.731875 8.071875 -4.46375 7.14375 -4.1875 6.1875 C-3.08851629 3.23759634 -2.37581439 1.94384814 0 0 Z " fill="#9B3AF2" transform="translate(201,222)"/>
<path d="M0 0 C3.96 0 7.92 0 12 0 C12 19.47 12 38.94 12 59 C8.04 59 4.08 59 0 59 C0 39.53 0 20.06 0 0 Z " fill="#283549" transform="translate(361,170)"/>
<path d="M0 0 C3.96 0 7.92 0 12 0 C12 19.47 12 38.94 12 59 C8.04 59 4.08 59 0 59 C0 39.53 0 20.06 0 0 Z " fill="#222F43" transform="translate(342,170)"/>
<path d="M0 0 C1 1 1 1 1.1328125 2.99609375 C1.13023437 3.80175781 1.12765625 4.60742188 1.125 5.4375 C1.12886719 6.64212891 1.12886719 6.64212891 1.1328125 7.87109375 C1 10 1 10 0 12 C-0.886875 11.95875 -1.77375 11.9175 -2.6875 11.875 C-6.03845675 12.0014512 -8.09706091 12.34117766 -11 14 C-12.15998288 17.2187574 -12.19514415 20.46403629 -12.31640625 23.859375 C-12.35830078 24.97441406 -12.40019531 26.08945313 -12.44335938 27.23828125 C-12.50233398 28.97658203 -12.50233398 28.97658203 -12.5625 30.75 C-12.60568359 31.92433594 -12.64886719 33.09867188 -12.69335938 34.30859375 C-12.79934717 37.20559355 -12.90016916 40.1027815 -13 43 C-16.96 43 -20.92 43 -25 43 C-25 29.14 -25 15.28 -25 1 C-21.04 1 -17.08 1 -13 1 C-12.67 1.66 -12.34 2.32 -12 3 C-10.700625 2.2575 -10.700625 2.2575 -9.375 1.5 C-5.87921669 -0.05368147 -3.76938944 -0.35064088 0 0 Z " fill="#233145" transform="translate(465,186)"/>
<path d="M0 0 C3.3 0 6.6 0 10 0 C10 10.89 10 21.78 10 33 C10.99 33 11.98 33 13 33 C13.66 34.98 14.32 36.96 15 39 C13.66666667 40.33333333 12.33333333 41.66666667 11 43 C10.92686433 45.53049402 10.90752473 48.03304837 10.9375 50.5625 C10.94201172 51.27341797 10.94652344 51.98433594 10.95117188 52.71679688 C10.96299136 54.47790013 10.98092737 56.23896036 11 58 C7.37 58 3.74 58 0 58 C0 38.86 0 19.72 0 0 Z " fill="#1F2D43" transform="translate(281,171)"/>
<path d="M0 0 C3.96 0 7.92 0 12 0 C12 13.86 12 27.72 12 42 C3 43 3 43 0 42 C0 28.14 0 14.28 0 0 Z " fill="#253245" transform="translate(516,187)"/>
<path d="M0 0 C3.96 0 7.92 0 12 0 C12 13.86 12 27.72 12 42 C8.04 42 4.08 42 0 42 C0 28.14 0 14.28 0 0 Z " fill="#2A374A" transform="translate(323,187)"/>
<path d="M0 0 C0.99 0.33 1.98 0.66 3 1 C3.7734375 2.92578125 3.7734375 2.92578125 4.375 5.3125 C5.71818838 9.65891983 6.94314636 11.65604012 11 14 C13.64258518 15.12972972 16.27313183 16.07563791 19 17 C18.67 18.32 18.34 19.64 18 21 C16.7625 21.2475 15.525 21.495 14.25 21.75 C10.37860756 22.7587431 8.36430322 23.62242397 6 27 C4.51394466 30.28170554 3.21630274 33.60987959 2 37 C1.01 37 0.02 37 -1 37 C-1.24234375 36.24074219 -1.4846875 35.48148438 -1.734375 34.69921875 C-2.06953125 33.70535156 -2.4046875 32.71148437 -2.75 31.6875 C-3.07484375 30.70136719 -3.3996875 29.71523437 -3.734375 28.69921875 C-5.46958677 24.99850475 -7.47181082 23.67764593 -11.140625 22.05078125 C-11.83671875 21.80714844 -12.5328125 21.56351563 -13.25 21.3125 C-15.10625 20.6628125 -15.10625 20.6628125 -17 20 C-17 19.01 -17 18.02 -17 17 C-16.24074219 16.76925781 -15.48148438 16.53851563 -14.69921875 16.30078125 C-13.70535156 15.97464844 -12.71148437 15.64851562 -11.6875 15.3125 C-10.70136719 14.99925781 -9.71523437 14.68601563 -8.69921875 14.36328125 C-5.42795419 12.71107961 -4.53907831 11.28105761 -3 8 C-2.30269194 5.6756398 -1.63087848 3.34326294 -1 1 C-0.67 0.67 -0.34 0.34 0 0 Z " fill="#7455E9" transform="translate(166,156)"/>
<path d="M0 0 C0.99 0.66 1.98 1.32 3 2 C1.02 2.99 1.02 2.99 -1 4 C-0.67 4.66 -0.34 5.32 0 6 C1.32303717 6.3721042 2.65737935 6.70630173 4 7 C4.33 7.33 4.66 7.66 5 8 C5.66 7.01 6.32 6.02 7 5 C11.29 5.99 15.58 6.98 20 8 C18.02 8.99 18.02 8.99 16 10 C15.01 9.67 14.02 9.34 13 9 C10.81889123 10.46734296 10.81889123 10.46734296 8.5625 12.5625 C2.41764232 17.71333659 -4.38494727 21.46164909 -12 24 C-12.22291766 26.09192883 -12.22291766 26.09192883 -10.63671875 27.515625 C-3.04385696 34.27159822 5.40626878 38.74175166 15 42 C15 42.33 15 42.66 15 43 C9.73946963 43.31563182 6.55426184 42.66590937 2 40 C2 39.34 2 38.68 2 38 C-0.64 37.67 -3.28 37.34 -6 37 C-6 35.68 -6 34.36 -6 33 C-6.8971875 32.566875 -6.8971875 32.566875 -7.8125 32.125 C-10 31 -10 31 -13 29 C-13 28.34 -13 27.68 -13 27 C-13.99 26.67 -14.98 26.34 -16 26 C-16 25.34 -16 24.68 -16 24 C-15.34 24 -14.68 24 -14 24 C-14 23.34 -14 22.68 -14 22 C-13.34 21.34 -12.68 20.68 -12 20 C-11.7834375 18.8553125 -11.7834375 18.8553125 -11.5625 17.6875 C-10.92428775 14.63826368 -9.70014271 12.58717368 -8 10 C-8.66 10.165 -9.32 10.33 -10 10.5 C-14.51115614 11.25185936 -18.92029525 11.6020198 -23.375 10.3125 C-25.64095945 8.48230198 -26.25274409 6.78522659 -27 4 C-26.67 3.01 -26.34 2.02 -26 1 C-25.731875 1.969375 -25.46375 2.93875 -25.1875 3.9375 C-24.795625 4.948125 -24.40375 5.95875 -24 7 C-18.80718836 8.73093721 -14.48681886 8.48706135 -9.375 6.8125 C-5.7345028 4.85741817 -3.05675459 2.75853463 0 0 Z " fill="#226BEF" transform="translate(111,216)"/>
<path d="M0 0 C4.49355742 8.98711483 5.53709603 18.30984975 5.4375 28.25 C5.42847656 29.34046631 5.41945312 30.43093262 5.41015625 31.55444336 C5.07622764 47.23169609 0.46400607 59.37637728 -7 73 C-7.66 73 -8.32 73 -9 73 C-8.37240135 70.07120629 -7.41377341 67.63904371 -6 65 C-5.34 65 -4.68 65 -4 65 C-4.165 63.9275 -4.33 62.855 -4.5 61.75 C-5 58 -5 58 -5 54 C-5.33 53.34 -5.66 52.68 -6 52 C-8.72426311 54.35277269 -9.8141763 56.62496331 -11 60 C-11.99 59.67 -12.98 59.34 -14 59 C-13.60167969 58.22076172 -13.60167969 58.22076172 -13.1953125 57.42578125 C-12.84210938 56.72839844 -12.48890625 56.03101563 -12.125 55.3125 C-11.60292969 54.28576172 -11.60292969 54.28576172 -11.0703125 53.23828125 C-4.85193922 40.23416486 -5.06323435 26.04155096 -7 12 C-6.01 12 -5.02 12 -4 12 C-3.93941406 12.77085937 -3.87882813 13.54171875 -3.81640625 14.3359375 C-3.73261719 15.33882812 -3.64882812 16.34171875 -3.5625 17.375 C-3.48128906 18.37273437 -3.40007812 19.37046875 -3.31640625 20.3984375 C-3.15034374 22.97927613 -3.15034374 22.97927613 -2 25 C-1.92818179 27.71760108 -1.90700494 30.40859388 -1.9375 33.125 C-1.94201172 33.87910156 -1.94652344 34.63320312 -1.95117188 35.41015625 C-1.96296501 37.27347127 -1.98090058 39.13674555 -2 41 C-0.01508358 40.73323796 -0.01508358 40.73323796 2 40 C3.23915102 36.28254693 3.18407713 32.80876619 3.1875 28.9375 C3.20586914 27.83825195 3.20586914 27.83825195 3.22460938 26.71679688 C3.22986299 24.80973493 3.12218272 22.90315114 3 21 C2.34 20.34 1.68 19.68 1 19 C1.0234375 16.8359375 1.0234375 16.8359375 1.375 14.375 C1.54128906 13.14910156 1.54128906 13.14910156 1.7109375 11.8984375 C1.85402344 10.95871094 1.85402344 10.95871094 2 10 C1.34 10 0.68 10 0 10 C0 6.7 0 3.4 0 0 Z " fill="#A73FEE" transform="translate(207,171)"/>
<path d="M0 0 C0.515625 0.2475 1.03125 0.495 1.5625 0.75 C0.5725 0.75 -0.4175 0.75 -1.4375 0.75 C-1.1075 1.41 -0.7775 2.07 -0.4375 2.75 C2.08983235 3.40555119 2.08983235 3.40555119 4.5625 3.75 C4.5625 5.75 4.5625 7.75 4.5625 9.75 C5.5525 10.08 6.5425 10.41 7.5625 10.75 C7.01980469 10.93175781 6.47710937 11.11351562 5.91796875 11.30078125 C5.20253906 11.55214844 4.48710937 11.80351562 3.75 12.0625 C2.68845703 12.42794922 2.68845703 12.42794922 1.60546875 12.80078125 C-2.0379025 14.49359045 -3.6701082 16.76563023 -5.125 20.4375 C-5.558125 21.530625 -5.99125 22.62375 -6.4375 23.75 C-8.0875 23.42 -9.7375 23.09 -11.4375 22.75 C-11.4375 23.41 -11.4375 24.07 -11.4375 24.75 C-12.4275 25.08 -13.4175 25.41 -14.4375 25.75 C-14.7675 24.76 -15.0975 23.77 -15.4375 22.75 C-16.0975 22.42 -16.7575 22.09 -17.4375 21.75 C-18.0975 24.72 -18.7575 27.69 -19.4375 30.75 C-19.7675 30.75 -20.0975 30.75 -20.4375 30.75 C-20.06141647 20.68976544 -18.01459649 12.79101113 -11.08203125 5.26171875 C-7.90563239 2.34184616 -4.50602285 -0.46215619 0 0 Z " fill="#2B384C" transform="translate(397.4375,172.25)"/>
<path d="M0 0 C0.66 0.33 1.32 0.66 2 1 C2.66 0.34 3.32 -0.32 4 -1 C6 2 6 2 5.75 5.125 C5.5025 6.07375 5.255 7.0225 5 8 C4.01 8.495 4.01 8.495 3 9 C3 9.66 3 10.32 3 11 C-2.97528606 15.53655124 -10.59701126 19.58089673 -18 21 C-20.3203125 20.09375 -20.3203125 20.09375 -22 19 C-20.35 19 -18.7 19 -17 19 C-17 15.7 -17 12.4 -17 9 C-17.99 8.67 -18.98 8.34 -20 8 C-20.33 8.66 -20.66 9.32 -21 10 C-21.33 9.01 -21.66 8.02 -22 7 C-22.66 6.67 -23.32 6.34 -24 6 C-23.05640625 5.74476563 -23.05640625 5.74476563 -22.09375 5.484375 C-17.71912935 4.24577759 -13.72994504 2.97136467 -9.75 0.75 C-6.17760551 -1.15190233 -3.95172249 -1.2231522 0 0 Z " fill="#6C49EF" transform="translate(177,253)"/>
<path d="M0 0 C0.66 0 1.32 0 2 0 C2 0.66 2 1.32 2 2 C2.66 2 3.32 2 4 2 C4.06058594 2.75925781 4.12117187 3.51851562 4.18359375 4.30078125 C4.26738281 5.29464844 4.35117187 6.28851563 4.4375 7.3125 C4.51871094 8.29863281 4.59992187 9.28476563 4.68359375 10.30078125 C4.91812559 13.09375599 4.91812559 13.09375599 6 16 C6.06847819 17.66538961 6.08482117 19.3333526 6.0625 21 C6.05347656 21.86625 6.04445313 22.7325 6.03515625 23.625 C6.02355469 24.40875 6.01195312 25.1925 6 26 C6 26.99 6 27.98 6 29 C6 29.66 6 30.32 6 31 C7.32 31 8.64 31 10 31 C10 31.66 10 32.32 10 33 C7.125 33.125 7.125 33.125 4 33 C3.34 32.34 2.68 31.68 2 31 C1.195625 31.061875 0.39125 31.12375 -0.4375 31.1875 C-1.7059375 31.0946875 -1.7059375 31.0946875 -3 31 C-5.75394013 27.38855048 -6.36494855 24.74845935 -6.29296875 20.26171875 C-6.28330078 19.19501953 -6.27363281 18.12832031 -6.26367188 17.02929688 C-6.23853516 15.92650391 -6.21339844 14.82371094 -6.1875 13.6875 C-6.17396484 12.56537109 -6.16042969 11.44324219 -6.14648438 10.28710938 C-6.1112138 7.52424771 -6.06192235 4.76237171 -6 2 C-5.67 2 -5.34 2 -5 2 C-4.67 3.98 -4.34 5.96 -4 8 C-3.34 8 -2.68 8 -2 8 C-2.226875 7.4225 -2.45375 6.845 -2.6875 6.25 C-3 4 -3 4 -1.6875 1.75 C-1.130625 1.1725 -0.57375 0.595 0 0 Z " fill="#1F2D43" transform="translate(543,195)"/>
<path d="M0 0 C8.03967561 5.68659982 12.30526608 14.54947894 17 23 C11.99513051 23.8308479 6.89687471 24.64236744 2 23 C-2.40583741 19.4688509 -4.96530981 14.15013723 -7 9 C-7.22265625 5.5390625 -7.22265625 5.5390625 -7 3 C-2.25 2 -2.25 2 0 2 C0 1.34 0 0.68 0 0 Z " fill="#2C3A4D" transform="translate(304,206)"/>
<path d="M0 0 C3 1 3 1 4 3 C4.66 3 5.32 3 6 3 C6 2.34 6 1.68 6 1 C7.32 1 8.64 1 10 1 C9.91621094 1.80824219 9.83242188 2.61648437 9.74609375 3.44921875 C9.64425781 4.51785156 9.54242188 5.58648437 9.4375 6.6875 C9.33308594 7.74324219 9.22867187 8.79898438 9.12109375 9.88671875 C8.97005124 13.76997305 8.96826437 16.80318667 11.5625 19.8125 C12.036875 20.204375 12.51125 20.59625 13 21 C12.25 23.9375 12.25 23.9375 11 27 C8.875 27.875 8.875 27.875 7 28 C6.67 27.01 6.34 26.02 6 25 C5.21625 24.773125 4.4325 24.54625 3.625 24.3125 C1 23 1 23 -0.8125 19.5625 C-2.60519095 13.99089802 -3.37012074 7.12870482 -0.98046875 1.671875 C-0.65691406 1.12015625 -0.33335937 0.5684375 0 0 Z " fill="#29364B" transform="translate(380,194)"/>
<path d="M0 0 C0 0.33 0 0.66 0 1 C-5.01179908 1.35798565 -7.58416353 0.24957707 -12 -2 C-15.63753813 -3.11692042 -19.30965383 -4.07413023 -23 -5 C-23 -4.01 -23 -3.02 -23 -2 C-25.38564077 -2.57584432 -27.66682784 -3.22227595 -30 -4 C-30 -4.66 -30 -5.32 -30 -6 C-33.62885324 -6.15149298 -33.62885324 -6.15149298 -37 -5 C-37 -5.66 -37 -6.32 -37 -7 C-39.31 -6.67 -41.62 -6.34 -44 -6 C-44 -5.34 -44 -4.68 -44 -4 C-45.32 -4 -46.64 -4 -48 -4 C-48.33 -3.34 -48.66 -2.68 -49 -2 C-50.83380676 -2 -52.66736164 -2.05954863 -54.5 -2.125 C-58.05836224 -2.39591678 -58.05836224 -2.39591678 -60 0 C-60.680625 0.165 -61.36125 0.33 -62.0625 0.5 C-62.701875 0.665 -63.34125 0.83 -64 1 C-64.33 1.66 -64.66 2.32 -65 3 C-65.886875 2.9175 -66.77375 2.835 -67.6875 2.75 C-71.72768551 3.05491966 -72.93424515 4.49898947 -76 7 C-78.1484375 6.62109375 -78.1484375 6.62109375 -80 6 C-72.55346828 0.0462062 -65.10402173 -3.27776787 -56 -6 C-54.40478516 -6.48146484 -54.40478516 -6.48146484 -52.77734375 -6.97265625 C-35.1117226 -11.67911046 -15.76126162 -9.44901188 0 0 Z " fill="#4C74E5" transform="translate(173,130)"/>
<path d="M0 0 C1.0409066 1.64142963 2.04504326 3.30712215 3 5 C3.99646464 6.21570074 3.99646464 6.21570074 5.9609375 6.1328125 C7.15589844 6.12894531 7.15589844 6.12894531 8.375 6.125 C9.56222656 6.12886719 9.56222656 6.12886719 10.7734375 6.1328125 C13.17343496 6.08617666 13.17343496 6.08617666 16 5 C15.34 6.65 14.68 8.3 14 10 C11.03 9.34 8.06 8.68 5 8 C4.67 8.66 4.34 9.32 4 10 C3.34 9.67 2.68 9.34 2 9 C2.66 10.32 3.32 11.64 4 13 C2.68 13.33 1.36 13.66 0 14 C0 14.66 0 15.32 0 16 C-4.42864971 15.4938686 -6.84889946 14.15110054 -10 11 C-12.08834651 6.96733087 -13 4.56397781 -13 0 C-11.39950296 -0.39036513 -9.79437629 -0.76178619 -8.1875 -1.125 C-7.29417969 -1.33382812 -6.40085938 -1.54265625 -5.48046875 -1.7578125 C-3 -2 -3 -2 0 0 Z " fill="#2F3C4F" transform="translate(247,212)"/>
<path d="M0 0 C1 1 1 1 1.1328125 2.99609375 C1.13023437 3.80175781 1.12765625 4.60742188 1.125 5.4375 C1.12886719 6.64212891 1.12886719 6.64212891 1.1328125 7.87109375 C1 10 1 10 0 12 C-0.928125 11.95875 -1.85625 11.9175 -2.8125 11.875 C-6.15809719 11.72863661 -6.15809719 11.72863661 -9 14 C-11.40102095 13.77490429 -12.75859597 13.16380988 -14.75 11.8125 C-16.56580358 9.17958481 -16.26563872 7.12125499 -16 4 C-15.67 3.34 -15.34 2.68 -15 2 C-17.97 2 -20.94 2 -24 2 C-24 12.56 -24 23.12 -24 34 C-24.33 34 -24.66 34 -25 34 C-25 23.11 -25 12.22 -25 1 C-21.04 1 -17.08 1 -13 1 C-12.67 1.66 -12.34 2.32 -12 3 C-10.700625 2.2575 -10.700625 2.2575 -9.375 1.5 C-5.87921669 -0.05368147 -3.76938944 -0.35064088 0 0 Z " fill="#212F44" transform="translate(465,186)"/>
<path d="M0 0 C0.66 0 1.32 0 2 0 C2 3.3 2 6.6 2 10 C4.97 10 7.94 10 11 10 C11 13.3 11 16.6 11 20 C8.03 20 5.06 20 2 20 C2.33 26.93 2.66 33.86 3 41 C5.64 41.33 8.28 41.66 11 42 C11 45.3 11 48.6 11 52 C5.60745798 53.79751401 0.67492109 53.70522993 -4.5625 51.5 C-5.366875 51.005 -6.17125 50.51 -7 50 C-6.67 49.34 -6.34 48.68 -6 48 C-4.35 48.33 -2.7 48.66 -1 49 C-1 49.66 -1 50.32 -1 51 C0.98 51 2.96 51 5 51 C5 50.34 5 49.68 5 49 C3.02 49.495 3.02 49.495 1 50 C1 48.68 1 47.36 1 46 C0.505 44.515 0.505 44.515 0 43 C-0.06632067 40.71193673 0.00148966 38.44413763 0.0625 36.15625 C0.09842179 33.81425123 0.09842179 33.81425123 -1 31 C-1.09338218 29.12686336 -1.12994843 27.25045638 -1.125 25.375 C-1.12757813 24.39273438 -1.13015625 23.41046875 -1.1328125 22.3984375 C-1 20 -1 20 0 19 C1.68608966 18.92794489 3.37500659 18.91613932 5.0625 18.9375 C5.98160156 18.94652344 6.90070312 18.95554688 7.84765625 18.96484375 C8.55792969 18.97644531 9.26820313 18.98804688 10 19 C10 16.36 10 13.72 10 11 C7.03 11 4.06 11 1 11 C0.67 7.37 0.34 3.74 0 0 Z " fill="#59626F" transform="translate(548,177)"/>
<path d="M0 0 C3.87429175 0.81956172 6.43108296 1.47599747 9.375 4.1875 C11.28738099 7.49739017 11.70312371 10.21482735 12 14 C10.37548581 14.33569297 8.75037083 14.6684796 7.125 15 C5.76761719 15.2784375 5.76761719 15.2784375 4.3828125 15.5625 C2 16 2 16 0 16 C-1.34331654 14.00669158 -2.67594012 12.00615134 -4 10 C-4.99 9.34 -5.98 8.68 -7 8 C-6.01 8 -5.02 8 -4 8 C-4.165 7.401875 -4.33 6.80375 -4.5 6.1875 C-5 4 -5 4 -5 1 C-3.35 1.33 -1.7 1.66 0 2 C0 1.34 0 0.68 0 0 Z M-7 4 C-5 5 -5 5 -5 5 Z " fill="#16263D" transform="translate(264,173)"/>
<path d="M0 0 C0.33 0.99 0.66 1.98 1 3 C-0.28965176 4.37562854 -1.62689293 5.70766393 -3 7 C-3.66 7 -4.32 7 -5 7 C-4.01 9.97 -3.02 12.94 -2 16 C-1.01 16 -0.02 16 1 16 C0.67 14.68 0.34 13.36 0 12 C0.66 12 1.32 12 2 12 C2.33 11.34 2.66 10.68 3 10 C5.088639 9.32624548 6.80363095 9 9 9 C6.47542236 14.68029969 2.61098086 18.53884381 -2.25 22.3125 C-3.14203125 23.00988281 -4.0340625 23.70726562 -4.953125 24.42578125 C-5.96632812 25.20501953 -5.96632812 25.20501953 -7 26 C-7.66 25.34 -8.32 24.68 -9 24 C-8.01 24 -7.02 24 -6 24 C-6 22.02 -6 20.04 -6 18 C-6.66 17.67 -7.32 17.34 -8 17 C-8.66 17.66 -9.32 18.32 -10 19 C-10.66 18.34 -11.32 17.68 -12 17 C-13.32392972 15.98758315 -14.65599167 14.98560611 -16 14 C-14.68 13.67 -13.36 13.34 -12 13 C-12 12.34 -12 11.68 -12 11 C-11.071875 10.87625 -11.071875 10.87625 -10.125 10.75 C-7.85609195 10.21402157 -7.85609195 10.21402157 -7 8.1875 C-6.67 7.465625 -6.34 6.74375 -6 6 C-4 3.75 -4 3.75 -2 2 C-1.34 2 -0.68 2 0 2 C0 1.34 0 0.68 0 0 Z " fill="#7C4BED" transform="translate(188,237)"/>
<path d="M0 0 C20.04517811 1.30668983 20.04517811 1.30668983 28 5 C28.64710938 5.25007812 29.29421875 5.50015625 29.9609375 5.7578125 C31.67505039 6.42246852 33.34258213 7.20443942 35 8 C35.495 9.485 35.495 9.485 36 11 C27 8 27 8 25.03564453 7.24047852 C19.18489204 5.07470538 13.96718465 4.4903802 7.75 4.5625 C6.36965576 4.57385986 6.36965576 4.57385986 4.96142578 4.58544922 C-7.15410317 4.87680036 -16.69399339 8.80400404 -27 15 C-27 13.68 -27 12.36 -27 11 C-24.89915791 9.99303432 -22.79420511 8.9946411 -20.6875 8 C-19.51574219 7.443125 -18.34398438 6.88625 -17.13671875 6.3125 C-14 5 -14 5 -11 5 C-10.67 4.01 -10.34 3.02 -10 2 C-6.7 2 -3.4 2 0 2 C0 1.34 0 0.68 0 0 Z " fill="#688AE1" transform="translate(135,134)"/>
<path d="M0 0 C0.33 0.66 0.66 1.32 1 2 C1.66 2 2.32 2 3 2 C2.67 3.65 2.34 5.3 2 7 C2.66 7.33 3.32 7.66 4 8 C4.33 7.34 4.66 6.68 5 6 C8.96 7.32 12.92 8.64 17 10 C17 10.33 17 10.66 17 11 C13.7 11 10.4 11 7 11 C7.66 11.66 8.32 12.32 9 13 C8.34 13 7.68 13 7 13 C6.67 13.66 6.34 14.32 6 15 C4.68 14.67 3.36 14.34 2 14 C1.67 15.65 1.34 17.3 1 19 C-2.47600706 17.12107727 -5.12100467 15.5492134 -7 12 C-6.80944019 8.18880373 -5.57936315 5.7857122 -3 3 C-2.34 3 -1.68 3 -1 3 C-0.67 2.01 -0.34 1.02 0 0 Z " fill="#7340F3" transform="translate(166,164)"/>
<path d="M0 0 C-0.33 1.32 -0.66 2.64 -1 4 C1.31 4 3.62 4 6 4 C6 4.66 6 5.32 6 6 C7.32 6 8.64 6 10 6 C10 6.66 10 7.32 10 8 C11.0725 7.9175 12.145 7.835 13.25 7.75 C17.75300221 8.05020015 17.99898403 8.90804415 21 12 C26.83884353 14.15115288 31.3638437 14.00308608 37.484375 13.09375 C40.28696799 12.98930554 41.64182548 13.54542506 44 15 C44 14.34 44 13.68 44 13 C45.65 13 47.3 13 49 13 C49 13.99 49 14.98 49 16 C29.60366331 16.3336673 15.43350867 14.71675434 -2 6 C-2 5.34 -2 4.68 -2 4 C-3.2065625 3.566875 -3.2065625 3.566875 -4.4375 3.125 C-7 2 -7 2 -8 0 C-2.25 -1.125 -2.25 -1.125 0 0 Z " fill="#436EE5" transform="translate(100,260)"/>
<path d="M0 0 C3.78611227 0.54087318 5.55400767 2.11722332 8 5 C8 5.66 8 6.32 8 7 C8.9590625 7.2165625 8.9590625 7.2165625 9.9375 7.4375 C12 8 12 8 13 9 C13.66 7.02 14.32 5.04 15 3 C15.66 3 16.32 3 17 3 C17.33 2.01 17.66 1.02 18 0 C18.33 1.32 18.66 2.64 19 4 C19.66 4 20.32 4 21 4 C22.32421875 5.609375 22.32421875 5.609375 23.6875 7.75 C24.14511719 8.44609375 24.60273438 9.1421875 25.07421875 9.859375 C26.16906025 12.39090725 25.9435441 13.46100862 25 16 C24.401875 15.34 23.80375 14.68 23.1875 14 C21.12498166 11.6626154 21.12498166 11.6626154 18 12 C16.89459074 14.78918149 16.89459074 14.78918149 17 17 C17.66 17 18.32 17 19 17 C19.38922918 18.28745036 19.76098036 19.58019597 20.125 20.875 C20.33382812 21.59429687 20.54265625 22.31359375 20.7578125 23.0546875 C20.83773437 23.69664062 20.91765625 24.33859375 21 25 C20.34 25.66 19.68 26.32 19 27 C18.01836578 25.06374902 17.03977546 23.12595461 16.0625 21.1875 C15.51722656 20.10855469 14.97195312 19.02960938 14.41015625 17.91796875 C13 15 13 15 12 12 C11.34 12 10.68 12 10 12 C8.77373372 10.30974108 7.55268158 8.61508732 6.375 6.890625 C4.4867377 4.29426434 2.33271315 2.19941525 0 0 Z " fill="#A244EC" transform="translate(178,149)"/>
<path d="M0 0 C3.39496562 2.1317226 5.87469243 4.88630987 8.015625 8.265625 C8.390625 11.703125 8.390625 11.703125 8.015625 14.265625 C6.365625 14.595625 4.715625 14.925625 3.015625 15.265625 C3.5725 16.131875 3.5725 16.131875 4.140625 17.015625 C5.015625 19.265625 5.015625 19.265625 4.140625 21.515625 C3.769375 22.093125 3.398125 22.670625 3.015625 23.265625 C2.355625 23.265625 1.695625 23.265625 1.015625 23.265625 C-0.73122808 19.43817049 -1.33323833 16.14119777 -1.609375 11.953125 C-1.72152344 10.35017578 -1.72152344 10.35017578 -1.8359375 8.71484375 C-1.90941406 7.50248047 -1.90941406 7.50248047 -1.984375 6.265625 C-2.644375 6.265625 -3.304375 6.265625 -3.984375 6.265625 C-4.314375 4.285625 -4.644375 2.305625 -4.984375 0.265625 C-1.984375 -0.734375 -1.984375 -0.734375 0 0 Z " fill="#AB45EB" transform="translate(198.984375,159.734375)"/>
<path d="M0 0 C2.375 1.625 2.375 1.625 4 4 C4.45319325 7.17235276 4.52990283 9.06487736 2.9375 11.875 C-0.15097604 13.66830867 -2.51143969 13.42841969 -6 13 C-8.8520847 11.02547983 -9.81895125 9.90524375 -10.5 6.5 C-9.33827182 0.69135908 -5.5534724 -0.92557873 0 0 Z " fill="#354052" transform="translate(332,169)"/>
<path d="M0 0 C2.3989516 1.57172691 2.90600171 2.71800513 3.8125 5.4375 C4.02578982 8.35246093 3.62661237 9.60288704 2 12 C-1.04983996 13.52491998 -3.6423369 13.23562548 -7 13 C-8.9375 11.9375 -8.9375 11.9375 -10 10 C-10.4375 6.5 -10.4375 6.5 -10 3 C-7.15121935 -0.39662308 -4.26361577 -0.54429137 0 0 Z " fill="#3B4657" transform="translate(525,169)"/>
<path d="M0 0 C3.62838643 2.23345601 7.16691771 4.75114811 9.80859375 8.11328125 C10.03125 10.83984375 10.03125 10.83984375 9.80859375 13.11328125 C8.81859375 13.44328125 7.82859375 13.77328125 6.80859375 14.11328125 C6.14859375 13.45328125 5.48859375 12.79328125 4.80859375 12.11328125 C5.13859375 11.45328125 5.46859375 10.79328125 5.80859375 10.11328125 C4.81859375 10.44328125 3.82859375 10.77328125 2.80859375 11.11328125 C2.80859375 10.45328125 2.80859375 9.79328125 2.80859375 9.11328125 C3.46859375 9.11328125 4.12859375 9.11328125 4.80859375 9.11328125 C4.47859375 8.45328125 4.14859375 7.79328125 3.80859375 7.11328125 C1.2812614 6.45773006 1.2812614 6.45773006 -1.19140625 6.11328125 C-1.52140625 5.12328125 -1.85140625 4.13328125 -2.19140625 3.11328125 C-2.85140625 2.78328125 -3.51140625 2.45328125 -4.19140625 2.11328125 C-4.52140625 3.43328125 -4.85140625 4.75328125 -5.19140625 6.11328125 C-6.18140625 5.78328125 -7.17140625 5.45328125 -8.19140625 5.11328125 C-9.37890625 2.55078125 -9.37890625 2.55078125 -10.19140625 0.11328125 C-10.68640625 0.79390625 -11.18140625 1.47453125 -11.69140625 2.17578125 C-14.19140625 4.11328125 -14.19140625 4.11328125 -16.23828125 4.15625 C-18.23530061 3.89068892 -20.21592943 3.50837661 -22.19140625 3.11328125 C-15.53426053 -2.31105971 -7.92807899 -3.86333641 0 0 Z " fill="#475EF0" transform="translate(143.19140625,185.88671875)"/>
<path d="M0 0 C0.33 0 0.66 0 1 0 C1.33 2.64 1.66 5.28 2 8 C3.32 6.68 4.64 5.36 6 4 C6.66 4.33 7.32 4.66 8 5 C8 7 8 9 8 11 C7.01 11.495 7.01 11.495 6 12 C5.28272222 13.64551962 4.61674772 15.31422289 4 17 C3.67 17.66 3.34 18.32 3 19 C2.01 19 1.02 19 0 19 C0 19.33 0 19.66 0 20 C-1.98 20 -3.96 20 -6 20 C-6 16.7 -6 13.4 -6 10 C-4.02 10 -2.04 10 0 10 C0 6.7 0 3.4 0 0 Z " fill="#1B2B41" transform="translate(537,177)"/>
<path d="M0 0 C-0.66 1.32 -1.32 2.64 -2 4 C-1.34 4.66 -0.68 5.32 0 6 C-1.23529937 10.94119746 -2.66188566 13.27606774 -7 16 C-9.6875 16.875 -9.6875 16.875 -12 17 C-12.66 16.34 -13.32 15.68 -14 15 C-12.35 15 -10.7 15 -9 15 C-9 11.7 -9 8.4 -9 5 C-9.99 4.67 -10.98 4.34 -12 4 C-12.33 4.66 -12.66 5.32 -13 6 C-13.33 5.01 -13.66 4.02 -14 3 C-14.66 2.67 -15.32 2.34 -16 2 C-13.70858188 1.66496236 -11.41685737 1.33201958 -9.125 1 C-7.21074219 0.7215625 -7.21074219 0.7215625 -5.2578125 0.4375 C-2 0 -2 0 0 0 Z " fill="#5E4AF0" transform="translate(169,257)"/>
<path d="M0 0 C15.23251611 -0.73804923 29.68154306 1.01547053 43 9 C43 9.33 43 9.66 43 10 C37.98820092 10.35798565 35.41583647 9.24957707 31 7 C27.36246187 5.88307958 23.69034617 4.92586977 20 4 C20 4.99 20 5.98 20 7 C17.61435923 6.42415568 15.33317216 5.77772405 13 5 C13 4.34 13 3.68 13 3 C9.37114676 2.84850702 9.37114676 2.84850702 6 4 C6 3.34 6 2.68 6 2 C3.03 1.505 3.03 1.505 0 1 C0 0.67 0 0.34 0 0 Z " fill="#5A50EA" transform="translate(130,121)"/>
<path d="M0 0 C0.99 0 1.98 0 3 0 C3.06058594 0.77085937 3.12117187 1.54171875 3.18359375 2.3359375 C3.26738281 3.33882812 3.35117188 4.34171875 3.4375 5.375 C3.51871094 6.37273437 3.59992188 7.37046875 3.68359375 8.3984375 C3.84965626 10.97927613 3.84965626 10.97927613 5 13 C5.125 16.5625 5.125 16.5625 5 20 C4.67 20.33 4.34 20.66 4 21 C3.96835875 23.81607168 4.06841633 26.61901289 4.16015625 29.43359375 C4 32 4 32 2 34 C1.690625 35.093125 1.38125 36.18625 1.0625 37.3125 C0.08322131 40.71117312 -1.0756866 43.07169699 -3 46 C-3.33 46.66 -3.66 47.32 -4 48 C-4.99 47.67 -5.98 47.34 -7 47 C-6.60167969 46.22076172 -6.60167969 46.22076172 -6.1953125 45.42578125 C-5.84210938 44.72839844 -5.48890625 44.03101563 -5.125 43.3125 C-4.60292969 42.28576172 -4.60292969 42.28576172 -4.0703125 41.23828125 C2.14806078 28.23416486 1.93676565 14.04155096 0 0 Z " fill="#A75BE0" transform="translate(200,183)"/>
<path d="M0 0 C1.98 0 3.96 0 6 0 C6.38218767 1.65614657 6.71395102 3.32457024 7 5 C6.67 5.33 6.34 5.66 6 6 C6.66 6.33 7.32 6.66 8 7 C8 8.32 8 9.64 8 11 C8.99 11.66 9.98 12.32 11 13 C10.67 13.99 10.34 14.98 10 16 C9.401875 15.505 8.80375 15.01 8.1875 14.5 C6.02970006 12.71723582 6.02970006 12.71723582 3 13 C2.67 12.34 2.34 11.68 2 11 C-0.34386809 10.08968728 -0.34386809 10.08968728 -3.0625 9.375 C-3.98160156 9.11460937 -4.90070313 8.85421875 -5.84765625 8.5859375 C-6.91306641 8.29589844 -6.91306641 8.29589844 -8 8 C-7.67 7.01 -7.34 6.02 -7 5 C-5.02 4.67 -3.04 4.34 -1 4 C-0.67 2.68 -0.34 1.36 0 0 Z " fill="#7C3EF5" transform="translate(167,131)"/>
<path d="M0 0 C0.99 0.33 1.98 0.66 3 1 C3.7734375 2.92578125 3.7734375 2.92578125 4.375 5.3125 C5.71818838 9.65891983 6.94314636 11.65604012 11 14 C13.64258518 15.12972972 16.27313183 16.07563791 19 17 C18.67 18.32 18.34 19.64 18 21 C17.01 20.67 16.02 20.34 15 20 C15.66 20 16.32 20 17 20 C17 19.34 17 18.68 17 18 C15.35 18 13.7 18 12 18 C12 17.34 12 16.68 12 16 C8.26513121 15.4254048 4.78706732 15 1 15 C1.66 13.35 2.32 11.7 3 10 C2.01 9.67 1.02 9.34 0 9 C-0.99 9.99 -1.98 10.98 -3 12 C-4 10 -4 10 -3.4765625 7.87109375 C-3.05503906 6.66646484 -3.05503906 6.66646484 -2.625 5.4375 C-2.34914062 4.63183594 -2.07328125 3.82617188 -1.7890625 2.99609375 C-1 1 -1 1 0 0 Z " fill="#8A5CE5" transform="translate(166,156)"/>
<path d="M0 0 C0.89203125 0.01804688 1.7840625 0.03609375 2.703125 0.0546875 C3.71632813 0.08949219 3.71632813 0.08949219 4.75 0.125 C4.729375 1.053125 4.70875 1.98125 4.6875 2.9375 C4.59230396 6.14786011 4.59230396 6.14786011 5.75 9.125 C5.42 9.785 5.09 10.445 4.75 11.125 C2.11 11.125 -0.53 11.125 -3.25 11.125 C-4.25 8.125 -4.25 8.125 -4.25 5.125 C-5.9 5.125 -7.55 5.125 -9.25 5.125 C-9.25 4.135 -9.25 3.145 -9.25 2.125 C-6.03817851 0.21891902 -3.71117397 -0.09766247 0 0 Z M5.75 7.125 C7.75 8.125 7.75 8.125 7.75 8.125 Z " fill="#19273C" transform="translate(405.25,170.875)"/>
<path d="M0 0 C1.9375 0.8125 1.9375 0.8125 4 2 C4.33 2.99 4.66 3.98 5 5 C5.99 5.66 6.98 6.32 8 7 C8 7.66 8 8.32 8 9 C6.2984375 9.61875 6.2984375 9.61875 4.5625 10.25 C0.90456616 11.56685398 0.90456616 11.56685398 0.0625 14.1875 C0.041875 14.785625 0.02125 15.38375 0 16 C-1.32 16.33 -2.64 16.66 -4 17 C-4.88935377 13.696686 -5.46274105 10.37705625 -6 7 C-5.38125 6.95875 -4.7625 6.9175 -4.125 6.875 C-3.42375 6.58625 -2.7225 6.2975 -2 6 C-0.6954344 3.00384054 -0.6954344 3.00384054 0 0 Z " fill="#843DF3" transform="translate(189,237)"/>
<path d="M0 0 C2.375 0.6875 2.375 0.6875 5 2 C6.3125 4.625 6.3125 4.625 7 7 C6.01 7.33 5.02 7.66 4 8 C4.99 8.99 5.98 9.98 7 11 C7.66 10.34 8.32 9.68 9 9 C10 10 10 10 10.1875 12.9375 C10 16 10 16 8 18 C4.3829832 18.58654327 3.22207622 18.15792086 0.1875 16 C-0.534375 15.34 -1.25625 14.68 -2 14 C-1.67 13.34 -1.34 12.68 -1 12 C0.32 12.66 1.64 13.32 3 14 C3.33 13.67 3.66 13.34 4 13 C3.01 12.34 2.02 11.68 1 11 C1.33 9.68 1.66 8.36 2 7 C0.68 6.67 -0.64 6.34 -2 6 C-1.34 5.34 -0.68 4.68 0 4 C0 2.68 0 1.36 0 0 Z " fill="#8848ED" transform="translate(173,131)"/>
<path d="M0 0 C3 1 3 1 4 3 C4.66 3 5.32 3 6 3 C6 2.34 6 1.68 6 1 C7.32 1 8.64 1 10 1 C9.67 3.97 9.34 6.94 9 10 C0.25 11.125 0.25 11.125 -2 10 C-2.17942163 6.05272412 -2.09350689 3.4019487 0 0 Z " fill="#17253B" transform="translate(380,194)"/>
<path d="M0 0 C0.33 0.99 0.66 1.98 1 3 C3.50447516 4.21869929 3.50447516 4.21869929 6 5 C6 5.66 6 6.32 6 7 C0.06 7.33 -5.88 7.66 -12 8 C-12 7.01 -12 6.02 -12 5 C-11.01 4.34 -10.02 3.68 -9 3 C-9.33 2.01 -9.66 1.02 -10 0 C-6.30581799 -1.231394 -3.7943739 -0.64432764 0 0 Z " fill="#17273E" transform="translate(259,221)"/>
<path d="M0 0 C3 0 3 0 5 0.5625 C7.19116616 1.22052993 7.19116616 1.22052993 10 0 C10.33 3.63 10.66 7.26 11 11 C10.34 10.67 9.68 10.34 9 10 C8.360625 10.185625 7.72125 10.37125 7.0625 10.5625 C6.381875 10.706875 5.70125 10.85125 5 11 C4.01 10.34 3.02 9.68 2 9 C1.01 9.33 0.02 9.66 -1 10 C-0.67 6.7 -0.34 3.4 0 0 Z " fill="#17263C" transform="translate(500,205)"/>
<path d="M0 0 C0.66 0 1.32 0 2 0 C2.5477159 9.12859827 1.86084834 15.07409004 -3.8125 22.3125 C-8.94052365 26.26840396 -13.60019808 27.39182461 -20 27 C-20 26.34 -20 25.68 -20 25 C-17.69 25 -15.38 25 -13 25 C-13 24.34 -13 23.68 -13 23 C-11.35 23 -9.7 23 -8 23 C-7.87625 22.38125 -7.7525 21.7625 -7.625 21.125 C-7 19 -7 19 -5 17 C-4.01 17.33 -3.02 17.66 -2 18 C-2.020625 17.278125 -2.04125 16.55625 -2.0625 15.8125 C-2 13 -2 13 -1.5 10.5625 C-0.89826012 7.91372059 -0.89826012 7.91372059 -1 4.8125 C-1 2 -1 2 0 0 Z " fill="#606BDD" transform="translate(153,200)"/>
<path d="M0 0 C3.3 0 6.6 0 10 0 C10 6.6 10 13.2 10 20 C9.67 20 9.34 20 9 20 C9 13.73 9 7.46 9 1 C7.68 1.33 6.36 1.66 5 2 C3.87198852 5.38403445 3.69028802 8.29344935 3.46484375 11.85546875 C3.42186661 12.51710526 3.37888947 13.17874176 3.33460999 13.86042786 C3.19849335 15.9692317 3.06792653 18.07833734 2.9375 20.1875 C2.84606899 21.61916404 2.75427636 23.05080503 2.66210938 24.48242188 C2.43721291 27.98802377 2.21729171 31.49391758 2 35 C1.67 35 1.34 35 1 35 C0.505 17.675 0.505 17.675 0 0 Z " fill="#1A2537" transform="translate(281,171)"/>
<path d="M0 0 C0.33 0 0.66 0 1 0 C0.94670532 0.84425537 0.94670532 0.84425537 0.89233398 1.70556641 C0.03261329 15.7912073 -0.68505794 29.24245036 3 43 C3.125 46.5 3.125 46.5 3 49 C-4.82118024 37.26822964 -3.7686169 19.10244905 -1.5703125 5.7578125 C-1 3 -1 3 0 0 Z " fill="#60A6DD" transform="translate(65,178)"/>
<path d="M0 0 C2.18714826 3.2807224 2.22647784 4.21149381 2.125 8 C2.10695313 8.86625 2.08890625 9.7325 2.0703125 10.625 C2.03550781 11.800625 2.03550781 11.800625 2 13 C2 13.99 2 14.98 2 16 C2 16.66 2 17.32 2 18 C3.32 18 4.64 18 6 18 C6 18.66 6 19.32 6 20 C3.125 20.125 3.125 20.125 0 20 C-0.66 19.34 -1.32 18.68 -2 18 C-3.32 18 -4.64 18 -6 18 C-5.67 15.03 -5.34 12.06 -5 9 C-3.68 8.67 -2.36 8.34 -1 8 C-0.67 5.36 -0.34 2.72 0 0 Z " fill="#162539" transform="translate(547,208)"/>
<path d="M0 0 C0.66 0.66 1.32 1.32 2 2 C1.67 2.66 1.34 3.32 1 4 C1.66 4 2.32 4 3 4 C3.28143835 9.44114142 3.43014809 13.46335253 0 18 C-3.6875 18.875 -3.6875 18.875 -7 19 C-7 18.01 -7 17.02 -7 16 C-6.01 15.34 -5.02 14.68 -4 14 C-4 13.01 -4 12.02 -4 11 C-3.5651997 9.46589328 -3.08161385 7.94516559 -2.5625 6.4375 C-2.29566406 5.65246094 -2.02882813 4.86742187 -1.75390625 4.05859375 C-1 2 -1 2 0 0 Z " fill="#1F67F8" transform="translate(117,204)"/>
<path d="M0 0 C3 2 3 2 3.75 4 C4 6 4 6 3 8 C2.34 8 1.68 8 1 8 C0.67 8.99 0.34 9.98 0 11 C-1.65 11.33 -3.3 11.66 -5 12 C-7.29013653 8.5647952 -7.17842973 7.014669 -7 3 C-2.25 2 -2.25 2 0 2 C0 1.34 0 0.68 0 0 Z " fill="#1B293E" transform="translate(304,206)"/>
<path d="M0 0 C3.3 0.33 6.6 0.66 10 1 C7.91470931 3.08529069 6.81713882 3.45715511 4.125 4.4375 C1.12473882 5.85035026 0.14502152 6.72237594 -1.4140625 9.70703125 C-2.39378127 12.45235831 -3.26120075 15.18089759 -4 18 C-4.99 17.67 -5.98 17.34 -7 17 C-7.31724138 7.64137931 -7.31724138 7.64137931 -5 4 C-2.375 3.1875 -2.375 3.1875 0 3 C0 2.01 0 1.02 0 0 Z " fill="#7D49EC" transform="translate(173,174)"/>
<path d="M0 0 C3.3 0 6.6 0 10 0 C10 6.93 10 13.86 10 21 C9.67 21 9.34 21 9 21 C9 14.73 9 8.46 9 2 C4.13867505 2.49152482 4.13867505 2.49152482 2 5 C1.53993654 7.20250992 1.53993654 7.20250992 1.375 9.625 C1.30023438 10.44226563 1.22546875 11.25953125 1.1484375 12.1015625 C1.07496094 13.04128906 1.07496094 13.04128906 1 14 C1.66 14.33 2.32 14.66 3 15 C2.67 15.66 2.34 16.32 2 17 C2.33 17.99 2.66 18.98 3 20 C2.66015625 22.48046875 2.66015625 22.48046875 2.0625 25.1875 C1.86785156 26.08855469 1.67320312 26.98960937 1.47265625 27.91796875 C1.31667969 28.60503906 1.16070312 29.29210937 1 30 C0.67 30 0.34 30 0 30 C0 20.1 0 10.2 0 0 Z " fill="#172235" transform="translate(469,171)"/>
<path d="M0 0 C0.33 0 0.66 0 1 0 C1.09796875 0.72445312 1.1959375 1.44890625 1.296875 2.1953125 C2.41167785 9.40308955 3.78377093 13.78377093 9 19 C8.67 19.66 8.34 20.32 8 21 C5.4375 21.625 5.4375 21.625 3 22 C2.67 21.34 2.34 20.68 2 20 C2.33 19.01 2.66 18.02 3 17 C2.01 16.34 1.02 15.68 0 15 C-1.08651655 9.6579603 -0.99941114 5.33019275 0 0 Z M-6 21 C-4.0625 21.375 -4.0625 21.375 -2 22 C-1.67 22.66 -1.34 23.32 -1 24 C-0.01 24.33 0.98 24.66 2 25 C1.34 25 0.68 25 0 25 C0 25.66 0 26.32 0 27 C-2.62187494 25.95125002 -3.79371361 25.35068687 -5.25 22.875 C-5.4975 22.25625 -5.745 21.6375 -6 21 Z " fill="#353F4F" transform="translate(389,197)"/>
<path d="M0 0 C0.84653438 3.0590674 1.24513185 4.99093136 0 8 C-0.99 8.33 -1.98 8.66 -3 9 C-2.7525 10.010625 -2.505 11.02125 -2.25 12.0625 C-1.98449651 16.24417998 -2.68850519 17.78483838 -4.94140625 21.22265625 C-6.59989697 24.00720709 -7.23230097 26.86522897 -8 30 C-10.42114666 22.73656002 -8.32023321 16.15003631 -5.06616211 9.51049805 C-3.42418676 6.31285494 -1.73431794 3.14863644 0 0 Z " fill="#2891EE" transform="translate(74,157)"/>
<path d="M0 0 C1.65 0 3.3 0 5 0 C4.01 0.66 3.02 1.32 2 2 C1.77708234 4.09192883 1.77708234 4.09192883 3.36328125 5.515625 C10.95614304 12.27159822 19.40626878 16.74175166 29 20 C29 20.33 29 20.66 29 21 C23.73946963 21.31563182 20.55426184 20.66590937 16 18 C16 17.34 16 16.68 16 16 C13.36 15.67 10.72 15.34 8 15 C8 13.68 8 12.36 8 11 C7.1028125 10.566875 7.1028125 10.566875 6.1875 10.125 C4 9 4 9 1 7 C1 6.34 1 5.68 1 5 C0.01 4.67 -0.98 4.34 -2 4 C-2 3.34 -2 2.68 -2 2 C-1.34 2 -0.68 2 0 2 C0 1.34 0 0.68 0 0 Z " fill="#5D8DE4" transform="translate(97,238)"/>
<path d="M0 0 C4.64938293 9.29876586 5.44790714 18.67725163 5.25 28.9375 C5.24484375 30.03384766 5.2396875 31.13019531 5.234375 32.25976562 C5.1882714 36.98826617 5.04659875 41.37367698 4 46 C3.34 45.34 2.68 44.68 2 44 C2.27385971 41.65894118 2.61969831 39.32613976 3 37 C3.16672165 34.22816947 3.18492698 31.46379195 3.1875 28.6875 C3.19974609 27.97271484 3.21199219 27.25792969 3.22460938 26.52148438 C3.2298177 24.67947476 3.12280544 22.83791877 3 21 C2.34 20.34 1.68 19.68 1 19 C1.0234375 16.8359375 1.0234375 16.8359375 1.375 14.375 C1.48585937 13.55773437 1.59671875 12.74046875 1.7109375 11.8984375 C1.80632812 11.27195313 1.90171875 10.64546875 2 10 C1.34 10 0.68 10 0 10 C0 6.7 0 3.4 0 0 Z " fill="#B95FE2" transform="translate(207,171)"/>
<path d="M0 0 C0 3.3 0 6.6 0 10 C-5.39254202 11.79751401 -10.32507891 11.70522993 -15.5625 9.5 C-16.366875 9.005 -17.17125 8.51 -18 8 C-17.67 7.34 -17.34 6.68 -17 6 C-15.35 6.33 -13.7 6.66 -12 7 C-12 7.66 -12 8.32 -12 9 C-9.06556598 8.73343428 -9.06556598 8.73343428 -6 8 C-3.7226499 5.18490007 -3.7226499 5.18490007 -4 2 C-5.32 1.67 -6.64 1.34 -8 1 C-1.125 0 -1.125 0 0 0 Z " fill="#5F6671" transform="translate(559,219)"/>
<path d="M0 0 C4.29 0.99 8.58 1.98 13 3 C11.02 3.99 11.02 3.99 9 5 C8.01 4.67 7.02 4.34 6 4 C5.21625 4.66 4.4325 5.32 3.625 6 C1 8 1 8 -1.5625 8.0625 C-4.71893305 6.68661893 -6.0639401 4.79653096 -8 2 C-6.35 1.67 -4.7 1.34 -3 1 C-2.67 1.66 -2.34 2.32 -2 3 C-1.34 2.01 -0.68 1.02 0 0 Z " fill="#2467F0" transform="translate(118,221)"/>
<path d="M0 0 C0.99 0 1.98 0 3 0 C3.268125 1.134375 3.53625 2.26875 3.8125 3.4375 C4.4003125 5.2009375 4.4003125 5.2009375 5 7 C5.99 7.33 6.98 7.66 8 8 C7.34 10.31 6.68 12.62 6 15 C2.70572135 12.57263678 0.6286018 10.75831184 -1 7 C-1.66 6.34 -2.32 5.68 -3 5 C-1.6875 2.5 -1.6875 2.5 0 0 Z " fill="#9547EE" transform="translate(192,231)"/>
<path d="M0 0 C0.33 1.32 0.66 2.64 1 4 C0.34 4 -0.32 4 -1 4 C-1.66 6.97 -2.32 9.94 -3 13 C-2.01 13.33 -1.02 13.66 0 14 C0 14.66 0 15.32 0 16 C-0.99 16.33 -1.98 16.66 -3 17 C-4.22969878 20.51190809 -4.22969878 20.51190809 -5 24 C-7.72835369 19.90746947 -7.74252061 16.80800473 -7 12 C-5.29856736 7.55983006 -3.3830144 3.3830144 0 0 Z " fill="#467DEA" transform="translate(120,189)"/>
<path d="M0 0 C1.2065625 0.0309375 1.2065625 0.0309375 2.4375 0.0625 C-0.08707764 5.74279969 -3.95151914 9.60134381 -8.8125 13.375 C-9.70453125 14.07238281 -10.5965625 14.76976562 -11.515625 15.48828125 C-12.19109375 16.00777344 -12.8665625 16.52726562 -13.5625 17.0625 C-14.2225 16.4025 -14.8825 15.7425 -15.5625 15.0625 C-14.5725 15.0625 -13.5825 15.0625 -12.5625 15.0625 C-12.2325 13.4125 -11.9025 11.7625 -11.5625 10.0625 C-10.2425 10.3925 -8.9225 10.7225 -7.5625 11.0625 C-7.5625 9.7425 -7.5625 8.4225 -7.5625 7.0625 C-6.9025 7.0625 -6.2425 7.0625 -5.5625 7.0625 C-5.8925 5.7425 -6.2225 4.4225 -6.5625 3.0625 C-5.9025 3.0625 -5.2425 3.0625 -4.5625 3.0625 C-4.2325 2.4025 -3.9025 1.7425 -3.5625 1.0625 C-2.5625 0.0625 -2.5625 0.0625 0 0 Z " fill="#9463E3" transform="translate(194.5625,245.9375)"/>
<path d="M0 0 C3.96 0 7.92 0 12 0 C12.33 0.66 12.66 1.32 13 2 C13.66 1.67 14.32 1.34 15 1 C14.60196439 3.88575819 14.20990931 4.82189513 11.9375 6.75 C11.298125 7.1625 10.65875 7.575 10 8 C8.875 3.25 8.875 3.25 10 1 C7.03 1 4.06 1 1 1 C1 11.56 1 22.12 1 33 C0.67 33 0.34 33 0 33 C0 22.11 0 11.22 0 0 Z " fill="#848D98" transform="translate(440,187)"/>
<path d="M0 0 C2.52916489 1.73880086 3.58454378 3.68563318 5 6.375 C3 9.375 3 9.375 0.375 10.0625 C-0.40875 10.165625 -1.1925 10.26875 -2 10.375 C-2 9.055 -2 7.735 -2 6.375 C-2.66 6.375 -3.32 6.375 -4 6.375 C-4.33 4.395 -4.66 2.415 -5 0.375 C-2 -0.625 -2 -0.625 0 0 Z " fill="#A538F2" transform="translate(199,159.625)"/>
<path d="M0 0 C2.8384145 1.71798773 4.68152621 3.07018456 5.77734375 6.26953125 C6.26033279 8.50820309 6.67548233 10.73321986 7 13 C4.69 13.33 2.38 13.66 0 14 C0 13.01 0 12.02 0 11 C0.99 10.34 1.98 9.68 3 9 C1.68 7.35 0.36 5.7 -1 4 C-0.34 4 0.32 4 1 4 C0.67 2.68 0.34 1.36 0 0 Z " fill="#3A4454" transform="translate(269,174)"/>
<path d="M0 0 C0.71929687 0.2784375 1.43859375 0.556875 2.1796875 0.84375 C3.82119652 1.47917285 5.41313654 2.23830554 7 3 C7.495 4.485 7.495 4.485 8 6 C6.6875 5.5625 5.375 5.125 4.0625 4.6875 C3.23105469 4.41550781 2.39960938 4.14351562 1.54296875 3.86328125 C-0.00953979 3.33623918 -1.55254769 2.77835657 -3.07421875 2.16796875 C-10.18469078 -0.58141377 -17.45811626 -0.71183843 -25 -1 C-25 -1.33 -25 -1.66 -25 -2 C-22.14628312 -2.25064392 -19.29416526 -2.47597763 -16.4375 -2.6875 C-15.63763672 -2.76033203 -14.83777344 -2.83316406 -14.01367188 -2.90820312 C-8.39773795 -3.29788017 -5.01044214 -2.56420397 0 0 Z " fill="#8E84E5" transform="translate(163,139)"/>
<path d="M0 0 C2.29225435 0.11371497 4.58382388 0.24130964 6.875 0.375 C8.15117187 0.44460937 9.42734375 0.51421875 10.7421875 0.5859375 C14 1 14 1 16 3 C7.31008699 3.79645684 -1.27457699 4.12852505 -10 4 C-10 3.34 -10 2.68 -10 2 C-6.7 2 -3.4 2 0 2 C0 1.34 0 0.68 0 0 Z " fill="#474FDF" transform="translate(135,134)"/>
<path d="M0 0 C0 3 0 6 0 9 C-2.31 8.67 -4.62 8.34 -7 8 C-7.33 6.68 -7.66 5.36 -8 4 C-3.375 0 -3.375 0 0 0 Z " fill="#1D2D40" transform="translate(397,218)"/>
<path d="M0 0 C1.98 0 3.96 0 6 0 C7 2 7 2 6.3125 5.0625 C5 8 5 8 2.875 8.875 C2.25625 8.91625 1.6375 8.9575 1 9 C0.67 8.01 0.34 7.02 0 6 C-0.99 5.67 -1.98 5.34 -3 5 C-2.67 3.68 -2.34 2.36 -2 1 C-1.67 1.33 -1.34 1.66 -1 2 C-0.67 1.34 -0.34 0.68 0 0 Z " fill="#152239" transform="translate(386,213)"/>
<path d="M0 0 C0.99 0.33 1.98 0.66 3 1 C4.125 5.75 4.125 5.75 3 8 C2.34 8 1.68 8 1 8 C0.34 8.66 -0.32 9.32 -1 10 C-1.33 9.67 -1.66 9.34 -2 9 C-2.66 9.99 -3.32 10.98 -4 12 C-5 11 -5 11 -5.0625 8.4375 C-5.041875 7.633125 -5.02125 6.82875 -5 6 C-4.34 6 -3.68 6 -3 6 C-2.690625 5.38125 -2.38125 4.7625 -2.0625 4.125 C-1.375 2.75 -0.6875 1.375 0 0 Z " fill="#202F45" transform="translate(386,206)"/>
<path d="M0 0 C2.97 0.495 2.97 0.495 6 1 C2.32993682 5.50416844 -2.74908096 7.76790201 -8 10 C-8.66 10 -9.32 10 -10 10 C-10 9.34 -10 8.68 -10 8 C-9.01 8 -8.02 8 -7 8 C-7.33 6.02 -7.66 4.04 -8 2 C-7.01 2 -6.02 2 -5 2 C-5 2.66 -5 3.32 -5 4 C-3.02 4 -1.04 4 1 4 C0.67 2.68 0.34 1.36 0 0 Z " fill="#4980EE" transform="translate(112,228)"/>
<path d="M0 0 C1.20527344 -0.01417969 2.41054688 -0.02835938 3.65234375 -0.04296875 C6.92269062 0.17805126 9.13066515 0.77999674 12.0625 2.1875 C11.0725 3.6725 11.0725 3.6725 10.0625 5.1875 C10.0625 4.1975 10.0625 3.2075 10.0625 2.1875 C9.4025 2.1875 8.7425 2.1875 8.0625 2.1875 C8.0625 2.8475 8.0625 3.5075 8.0625 4.1875 C4.3125 5.3125 4.3125 5.3125 2.0625 4.1875 C2.0625 3.5275 2.0625 2.8675 2.0625 2.1875 C1.45921875 2.28289062 0.8559375 2.37828125 0.234375 2.4765625 C-0.96445313 2.64285156 -0.96445313 2.64285156 -2.1875 2.8125 C-2.97640625 2.92851562 -3.7653125 3.04453125 -4.578125 3.1640625 C-7.25902459 3.19069395 -8.66444089 2.55342084 -10.9375 1.1875 C-7.28426499 0.04871103 -3.81062562 0.02033418 0 0 Z " fill="#3F4957" transform="translate(255.9375,170.8125)"/>
<path d="M0 0 C0.89203125 0.00902344 1.7840625 0.01804687 2.703125 0.02734375 C3.37859375 0.03894531 4.0540625 0.05054687 4.75 0.0625 C4.42 0.7225 4.09 1.3825 3.75 2.0625 C2.43 2.0625 1.11 2.0625 -0.25 2.0625 C-0.25 2.7225 -0.25 3.3825 -0.25 4.0625 C-1.57 4.0625 -2.89 4.0625 -4.25 4.0625 C-4.58 4.7225 -4.91 5.3825 -5.25 6.0625 C-7.40634036 6.0625 -9.17446352 5.6159764 -11.25 5.0625 C-10.59 4.7325 -9.93 4.4025 -9.25 4.0625 C-9.25 3.0725 -9.25 2.0825 -9.25 1.0625 C-6.09493858 0.12630187 -3.28413498 -0.0432123 0 0 Z " fill="#465DE6" transform="translate(129.25,121.9375)"/>
<path d="M0 0 C0.99 0 1.98 0 3 0 C3.06058594 0.77085937 3.12117187 1.54171875 3.18359375 2.3359375 C3.26738281 3.33882812 3.35117188 4.34171875 3.4375 5.375 C3.55931641 6.87160156 3.55931641 6.87160156 3.68359375 8.3984375 C3.84965626 10.97927613 3.84965626 10.97927613 5 13 C5.04022391 15.3329866 5.04320247 17.66706666 5 20 C4.01 20.33 3.02 20.66 2 21 C1.34 14.07 0.68 7.14 0 0 Z " fill="#AE4FE8" transform="translate(200,183)"/>
<path d="M0 0 C4.29 1.32 8.58 2.64 13 4 C13 4.33 13 4.66 13 5 C9.7 5 6.4 5 3 5 C3.66 5.66 4.32 6.32 5 7 C4.34 7 3.68 7 3 7 C2.67 7.66 2.34 8.32 2 9 C1.01 8.67 0.02 8.34 -1 8 C-1.625 5.6875 -1.625 5.6875 -2 3 C-1.34 2.01 -0.68 1.02 0 0 Z " fill="#803DF5" transform="translate(170,170)"/>
<path d="M0 0 C4.20846271 0.48935613 8.01772477 1.57775885 12 3 C11.01 3.33 10.02 3.66 9 4 C9.33 4.99 9.66 5.98 10 7 C3.62575453 7.17706237 3.62575453 7.17706237 1 6 C-0.25 3.4375 -0.25 3.4375 -1 1 C-0.67 0.67 -0.34 0.34 0 0 Z " fill="#364152" transform="translate(249,192)"/>
<path d="M0 0 C3.97041037 -0.22057835 5.23312136 0.11656068 9 2 C9 5.63 9 9.26 9 13 C9.66 13 10.32 13 11 13 C11 13.66 11 14.32 11 15 C10.01 15 9.02 15 8 15 C7.75765625 14.25234375 7.5153125 13.5046875 7.265625 12.734375 C6.93046875 11.74953125 6.5953125 10.7646875 6.25 9.75 C5.92515625 8.77546875 5.6003125 7.8009375 5.265625 6.796875 C3.91942103 3.82193041 2.43095383 2.14495926 0 0 Z " fill="#8C6DDF" transform="translate(157,178)"/>
<path d="M0 0 C0.99 0.33 1.98 0.66 3 1 C3 3.97 3 6.94 3 10 C2.01 9.67 1.02 9.34 0 9 C-0.99 9.99 -1.98 10.98 -3 12 C-4 10 -4 10 -3.4765625 7.87109375 C-3.05503906 6.66646484 -3.05503906 6.66646484 -2.625 5.4375 C-2.34914062 4.63183594 -2.07328125 3.82617188 -1.7890625 2.99609375 C-1 1 -1 1 0 0 Z " fill="#875FEA" transform="translate(166,156)"/>
<path d="M0 0 C1.29608947 0.93137592 2.58671632 1.8703566 3.875 2.8125 C4.59429687 3.33457031 5.31359375 3.85664063 6.0546875 4.39453125 C8 6 8 6 10 9 C9.01 9.495 9.01 9.495 8 10 C5.875 9.0625 5.875 9.0625 4 8 C3.34 8.66 2.68 9.32 2 10 C1.67 9.01 1.34 8.02 1 7 C0.01 6.67 -0.98 6.34 -2 6 C-1.34 5.34 -0.68 4.68 0 4 C0 3.67 0 3.34 0 3 C0 2.01 0 1.02 0 0 Z " fill="#9557E9" transform="translate(178,133)"/>
<path d="M0 0 C0.66 0 1.32 0 2 0 C2 1.65 2 3.3 2 5 C2.66 5.33 3.32 5.66 4 6 C4.72159424 7.64363134 5.39351421 9.31050386 6 11 C5.01 10.67 4.02 10.34 3 10 C2.67 9.34 2.34 8.68 2 8 C-0.34386809 7.08968728 -0.34386809 7.08968728 -3.0625 6.375 C-4.44115234 5.98441406 -4.44115234 5.98441406 -5.84765625 5.5859375 C-6.91306641 5.29589844 -6.91306641 5.29589844 -8 5 C-7.67 4.01 -7.34 3.02 -7 2 C-6.030625 1.855625 -5.06125 1.71125 -4.0625 1.5625 C-1.13513227 1.32437659 -1.13513227 1.32437659 0 0 Z " fill="#7040EE" transform="translate(167,134)"/>
<path d="M0 0 C7.45071559 1.06212329 13.43657756 3.34124111 20 7 C20 7.33 20 7.66 20 8 C15.05334733 8.35333233 12.31895786 7.33943551 8 5 C6.01132287 4.30028027 4.01391949 3.62335603 2 3 C2 2.34 2 1.68 2 1 C1.34 0.67 0.68 0.34 0 0 Z " fill="#8564E4" transform="translate(153,123)"/>
<path d="M0 0 C1.65 0 3.3 0 5 0 C5 4 5 4 4 7 C4.66 7 5.32 7 6 7 C6 7.66 6 8.32 6 9 C5.34 9.66 4.68 10.32 4 11 C3.01 11 2.02 11 1 11 C0.83197949 9.54182203 0.66562857 8.0834516 0.5 6.625 C0.4071875 5.81289062 0.314375 5.00078125 0.21875 4.1640625 C0 2 0 2 0 0 Z " fill="#16243B" transform="translate(258,196)"/>
<path d="M0 0 C0.33 0.99 0.66 1.98 1 3 C1.66 3 2.32 3 3 3 C3.33 2.34 3.66 1.68 4 1 C4.99 1.66 5.98 2.32 7 3 C6.2265625 4.3303125 6.2265625 4.3303125 5.4375 5.6875 C3.87043801 9.2985559 4.08488488 10.33953953 5 14 C4.34 14.66 3.68 15.32 3 16 C2.49193553 14.27318563 1.99389533 12.54342021 1.5 10.8125 C1.08234375 9.36810547 1.08234375 9.36810547 0.65625 7.89453125 C0.03322392 5.14654124 -0.12302812 2.80401584 0 0 Z " fill="#0986F6" transform="translate(65,208)"/>
<path d="M0 0 C1.32 0.33 2.64 0.66 4 1 C4 4.38821748 3.60009074 4.8015879 1.5625 7.3125 C-0.82847717 10.48696121 -1.70529268 12.97233329 -2 17 C-2.33 17 -2.66 17 -3 17 C-3.34548714 10.66606918 -2.29342747 5.89738492 0 0 Z " fill="#0887F7" transform="translate(67,182)"/>
<path d="M0 0 C0.33 0 0.66 0 1 0 C1.07347656 1.37671875 1.07347656 1.37671875 1.1484375 2.78125 C1.55751361 10.72111852 1.55751361 10.72111852 3.0625 18.5 C3.95873618 21.84594841 4.17206865 24.55862702 4 28 C-1.6667861 19.49982085 -1.30609606 9.7563802 0 0 Z " fill="#519DE7" transform="translate(64,199)"/>
<path d="M0 0 C0 1.32 0 2.64 0 4 C-0.66 4 -1.32 4 -2 4 C-2 5.65 -2 7.3 -2 9 C-4 8 -4 8 -5 5 C-5.66 5 -6.32 5 -7 5 C-7.33 5.66 -7.66 6.32 -8 7 C-8 5 -8 3 -8 1 C-4.93251126 -0.86240388 -3.40254489 -1.2151946 0 0 Z " fill="#15253C" transform="translate(310,191)"/>
<path d="M0 0 C0.66 0.66 1.32 1.32 2 2 C1.67 2.66 1.34 3.32 1 4 C1.66 4 2.32 4 3 4 C3.3125 6.25 3.3125 6.25 3 9 C0.6875 11.375 0.6875 11.375 -2 13 C-2.99 12.67 -3.98 12.34 -5 12 C-4.34 11.34 -3.68 10.68 -3 10 C-2.36233239 8.09999642 -2.36233239 8.09999642 -1.9375 6 C-1.44544792 3.78779893 -1.01674863 2.03349727 0 0 Z " fill="#2465EC" transform="translate(117,204)"/>
<path d="M0 0 C0.33 0.66 0.66 1.32 1 2 C-2.02734375 2.24414062 -2.02734375 2.24414062 -5.0546875 2.48828125 C-7.39519216 2.87393036 -7.39519216 2.87393036 -9 6 C-11.64 5.67 -14.28 5.34 -17 5 C-11.38930449 0.42832218 -7.05082028 -0.23901086 0 0 Z " fill="#6A84E1" transform="translate(138,184)"/>
<path d="M0 0 C2.3125 -0.3125 2.3125 -0.3125 5 0 C6.625 2.4375 6.625 2.4375 8 5 C8.99 5.33 9.98 5.66 11 6 C10.67 7.65 10.34 9.3 10 11 C5.86062408 7.69984002 2.41337795 4.82675589 0 0 Z " fill="#4B91E7" transform="translate(78,246)"/>
<path d="M0 0 C-0.99 0.495 -0.99 0.495 -2 1 C-3.13350534 3.01669827 -3.13350534 3.01669827 -4 5 C-4.55429688 4.84402344 -5.10859375 4.68804687 -5.6796875 4.52734375 C-6.40414062 4.33269531 -7.12859375 4.13804687 -7.875 3.9375 C-8.59429687 3.74027344 -9.31359375 3.54304687 -10.0546875 3.33984375 C-12.07273593 2.78867393 -12.07273593 2.78867393 -14 4 C-14.66 3.34 -15.32 2.68 -16 2 C-14.08654673 1.46748234 -12.1690705 0.94940517 -10.25 0.4375 C-9.18265625 0.14746094 -8.1153125 -0.14257812 -7.015625 -0.44140625 C-4.15664073 -0.97098494 -2.68402617 -0.98370862 0 0 Z " fill="#156DF2" transform="translate(105,226)"/>
<path d="M0 0 C0.99 0.33 1.98 0.66 3 1 C2.33333333 2.66666667 1.66666667 4.33333333 1 6 C0.71125 6.9075 0.4225 7.815 0.125 8.75 C-1 11 -1 11 -3.125 11.8125 C-3.74375 11.874375 -4.3625 11.93625 -5 12 C-4.25 5.375 -4.25 5.375 -2 2 C-1.34 2 -0.68 2 0 2 C0 1.34 0 0.68 0 0 Z " fill="#2064F2" transform="translate(121,191)"/>
<path d="M0 0 C5.7295672 -0.36571706 10.8023244 0.42762694 16 3 C16.99 4.485 16.99 4.485 18 6 C14.62294375 5.46274105 11.303314 4.88935377 8 4 C8 3.34 8 2.68 8 2 C5.36 2 2.72 2 0 2 C0 1.34 0 0.68 0 0 Z " fill="#4A5261" transform="translate(488,186)"/>
<path d="M0 0 C0.66 0.33 1.32 0.66 2 1 C2 1.66 2 2.32 2 3 C2.66 3.33 3.32 3.66 4 4 C2.02 4.99 2.02 4.99 0 6 C0 6.99 0 7.98 0 9 C-1.32 9 -2.64 9 -4 9 C-4 6.69 -4 4.38 -4 2 C-2.125 0.9375 -2.125 0.9375 0 0 Z " fill="#15243A" transform="translate(269,179)"/>
<path d="M0 0 C3.78611227 0.54087318 5.55400767 2.11722332 8 5 C8 5.66 8 6.32 8 7 C8.61875 7.0825 9.2375 7.165 9.875 7.25 C12 8 12 8 13.3125 9.875 C14 12 14 12 13 15 C12.67 14.01 12.34 13.02 12 12 C11.34 12 10.68 12 10 12 C8.77373372 10.30974108 7.55268158 8.61508732 6.375 6.890625 C4.4867377 4.29426434 2.33271315 2.19941525 0 0 Z " fill="#9F67E4" transform="translate(178,149)"/>
<path d="M0 0 C0.66 0 1.32 0 2 0 C2 0.66 2 1.32 2 2 C3.98 1.67 5.96 1.34 8 1 C8.125 5.75 8.125 5.75 7 8 C5.35 8 3.7 8 2 8 C1.33333333 5.33333333 0.66666667 2.66666667 0 0 Z " fill="#0D7EF6" transform="translate(72,232)"/>
<path d="M0 0 C0.99 0 1.98 0 3 0 C3.33 0.99 3.66 1.98 4 3 C4.66 3.66 5.32 4.32 6 5 C5.67 5.99 5.34 6.98 5 8 C-1.0546875 8.1953125 -1.0546875 8.1953125 -3 8 C-3.66 7.34 -4.32 6.68 -5 6 C-4.34 5.67 -3.68 5.34 -3 5 C-2.01 5.33 -1.02 5.66 0 6 C0 4.02 0 2.04 0 0 Z " fill="#16243A" transform="translate(255,173)"/>
<path d="M0 0 C0.66 0 1.32 0 2 0 C3.0625 2.375 3.0625 2.375 4 5 C3.67 5.66 3.34 6.32 3 7 C2.34 7 1.68 7 1 7 C1 7.66 1 8.32 1 9 C1.66 8.67 2.32 8.34 3 8 C5.3329866 7.95977609 7.66706666 7.95679753 10 8 C10 8.33 10 8.66 10 9 C6.7 9.66 3.4 10.32 0 11 C-0.33 9.68 -0.66 8.36 -1 7 C-1.66 6.34 -2.32 5.68 -3 5 C-2.01 4.67 -1.02 4.34 0 4 C0 2.68 0 1.36 0 0 Z " fill="#313E50" transform="translate(483,188)"/>
<path d="M0 0 C0.96516243 3.00272755 1.22393475 5.04215769 0 8 C-0.99 8.33 -1.98 8.66 -3 9 C-3 10.65 -3 12.3 -3 14 C-3.66 14 -4.32 14 -5 14 C-5 14.66 -5 15.32 -5 16 C-5.66 16 -6.32 16 -7 16 C-5.26017005 10.18738629 -3.1889511 5.16830006 0 0 Z " fill="#4F9CE7" transform="translate(74,157)"/>
<path d="M0 0 C1.99954746 -0.04254356 4.00041636 -0.04080783 6 0 C7 1 7 1 7.09765625 3.06640625 C7.08605469 3.89011719 7.07445312 4.71382812 7.0625 5.5625 C7.05347656 6.38878906 7.04445313 7.21507812 7.03515625 8.06640625 C7.01775391 9.02353516 7.01775391 9.02353516 7 10 C6.34 10 5.68 10 5 10 C5 8.02 5 6.04 5 4 C3.35 4.33 1.7 4.66 0 5 C0 3.35 0 1.7 0 0 Z " fill="#4F555F" transform="translate(459,186)"/>
<path d="M0 0 C2.475 0.99 2.475 0.99 5 2 C5 2.66 5 3.32 5 4 C4.34 4 3.68 4 3 4 C2.5978125 5.2684375 2.5978125 5.2684375 2.1875 6.5625 C0.9521405 10.13854067 -0.476988 13.53860908 -2 17 C-2.33 17 -2.66 17 -3 17 C-2.8864371 15.35333797 -2.75882619 13.70763918 -2.625 12.0625 C-2.55539063 11.14597656 -2.48578125 10.22945312 -2.4140625 9.28515625 C-2.27742188 8.53105469 -2.14078125 7.77695313 -2 7 C-1.34 6.67 -0.68 6.34 0 6 C0 4.02 0 2.04 0 0 Z " fill="#5E9DE8" transform="translate(89,161)"/>
<path d="M0 0 C0.66 0 1.32 0 2 0 C0.26017005 5.81261371 -1.8110489 10.83169994 -5 16 C-5.66 16 -6.32 16 -7 16 C-6.37240135 13.07120629 -5.41377341 10.63904371 -4 8 C-3.34 8 -2.68 8 -2 8 C-2.04125 7.05125 -2.0825 6.1025 -2.125 5.125 C-2 2 -2 2 0 0 Z " fill="#B374E1" transform="translate(205,228)"/>
<path d="M0 0 C0.66 0 1.32 0 2 0 C2.08133791 1.91595968 2.13934367 3.83291932 2.1875 5.75 C2.22230469 6.81734375 2.25710937 7.8846875 2.29296875 8.984375 C1.97082786 12.30027855 1.22851086 13.59016673 -1 16 C-1.02692484 13.70839681 -1.04636124 11.41670454 -1.0625 9.125 C-1.07410156 7.84882813 -1.08570313 6.57265625 -1.09765625 5.2578125 C-1 2 -1 2 0 0 Z " fill="#5A53DC" transform="translate(153,200)"/>
<path d="M0 0 C0.33 0 0.66 0 1 0 C1.02913821 3.5624827 1.04684529 7.12493454 1.0625 10.6875 C1.07087891 11.69490234 1.07925781 12.70230469 1.08789062 13.74023438 C1.09111328 14.71669922 1.09433594 15.69316406 1.09765625 16.69921875 C1.10289307 17.59471436 1.10812988 18.49020996 1.11352539 19.4128418 C0.99840198 22.03641759 0.58234285 24.44293053 0 27 C-0.66 26.34 -1.32 25.68 -2 25 C-1.81587646 23.35558635 -1.61549916 21.71117306 -1.32861328 20.08154297 C-0.72671171 16.26890343 -0.62681161 12.41390507 -0.4375 8.5625 C-0.39431641 7.73556641 -0.35113281 6.90863281 -0.30664062 6.05664062 C-0.20161967 4.03790451 -0.10041441 2.01897049 0 0 Z " fill="#AB57DA" transform="translate(211,190)"/>
<path d="M0 0 C1.69141656 0.08963062 3.37959602 0.24577676 5.0625 0.4375 C6.44115234 0.59025391 6.44115234 0.59025391 7.84765625 0.74609375 C8.55792969 0.82988281 9.26820313 0.91367188 10 1 C7.54764546 3.45235454 4.98597064 4.53601382 1.875 6 C-0.16551151 6.97140377 -0.16551151 6.97140377 -2 9 C-2 7.68 -2 6.36 -2 5 C-1.34 5 -0.68 5 0 5 C-0.2784375 4.0409375 -0.2784375 4.0409375 -0.5625 3.0625 C-0.7790625 2.0415625 -0.7790625 2.0415625 -1 1 C-0.67 0.67 -0.34 0.34 0 0 Z " fill="#8851E0" transform="translate(173,174)"/>
<path d="M0 0 C6.625 -0.25 6.625 -0.25 10 2 C10 1.34 10 0.68 10 0 C11.65 0 13.3 0 15 0 C15 0.99 15 1.98 15 3 C9.72 3 4.44 3 -1 3 C-0.67 2.01 -0.34 1.02 0 0 Z " fill="#4D5EE2" transform="translate(134,273)"/>
<path d="M0 0 C0.25 2.75 0.25 2.75 0 6 C-2 8.375 -2 8.375 -4 10 C-4.66 9.67 -5.32 9.34 -6 9 C-5.75 5.625 -5.75 5.625 -5 2 C-3.25550889 0.74614701 -2.17201059 0 0 0 Z " fill="#313C4B" transform="translate(510,214)"/>
<path d="M0 0 C0.33 1.32 0.66 2.64 1 4 C0.34 4 -0.32 4 -1 4 C-1.2475 5.258125 -1.495 6.51625 -1.75 7.8125 C-2.48837994 10.83557727 -2.79382006 11.8059483 -5.125 14 C-5.74375 14.33 -6.3625 14.66 -7 15 C-6.57352731 9.31369743 -4.06314998 4.06314998 0 0 Z " fill="#6E93E4" transform="translate(120,189)"/>
<path d="M0 0 C1.37562854 1.28965176 2.70766393 2.62689293 4 4 C4 4.66 4 5.32 4 6 C4.31478446 7.33783393 4.64587656 8.67203709 5 10 C3.1875 9.8125 3.1875 9.8125 1 9 C-0.875 6.6875 -0.875 6.6875 -2 4 C-1.1875 1.6875 -1.1875 1.6875 0 0 Z " fill="#933AF6" transform="translate(185,147)"/>
<path d="M0 0 C0.33 1.32 0.66 2.64 1 4 C-0.98 4.99 -2.96 5.98 -5 7 C-6.0625 5.125 -6.0625 5.125 -7 3 C-6.67 2.34 -6.34 1.68 -6 1 C-2.9375 0.375 -2.9375 0.375 0 0 Z " fill="#2B5EF1" transform="translate(117,137)"/>
<path d="M0 0 C1.5625 1.1875 1.5625 1.1875 3 3 C2.6875 5.6875 2.6875 5.6875 2 8 C0.68 8 -0.64 8 -2 8 C-2 7.34 -2 6.68 -2 6 C-2.66 5.67 -3.32 5.34 -4 5 C-2 2 -2 2 0 0 Z " fill="#7541F7" transform="translate(180,252)"/>
<path d="M0 0 C-0.99 0.495 -0.99 0.495 -2 1 C-2 2.32 -2 3.64 -2 5 C-3.98 5 -5.96 5 -8 5 C-8.33 3.68 -8.66 2.36 -9 1 C-6.04335481 -0.4783226 -3.25770263 -0.06032783 0 0 Z " fill="#7F6CDD" transform="translate(158,172)"/>
<path d="M0 0 C2.62527189 -0.05382106 5.24944713 -0.09358313 7.875 -0.125 C8.62136719 -0.14175781 9.36773437 -0.15851563 10.13671875 -0.17578125 C12.09194461 -0.1933959 14.04742021 -0.10320189 16 0 C16.66 0.66 17.32 1.32 18 2 C16.95199219 2.09087891 16.95199219 2.09087891 15.8828125 2.18359375 C14.97273437 2.26738281 14.06265625 2.35117188 13.125 2.4375 C12.22007812 2.51871094 11.31515625 2.59992188 10.3828125 2.68359375 C7.98889139 2.86989285 7.98889139 2.86989285 6 4 C6 3.34 6 2.68 6 2 C3.03 1.505 3.03 1.505 0 1 C0 0.67 0 0.34 0 0 Z " fill="#9395E4" transform="translate(130,121)"/>
<path d="M0 0 C0.99 0 1.98 0 3 0 C5.60250805 3.37362154 6.36265043 5.76907828 6 10 C5.34 10 4.68 10 4 10 C2.65668346 8.00669158 1.32405988 6.00615134 0 4 C-0.99 3.34 -1.98 2.68 -3 2 C-2.01 2 -1.02 2 0 2 C0 1.34 0 0.68 0 0 Z " fill="#515C68" transform="translate(260,179)"/>
<path d="M0 0 C0.33 1.98 0.66 3.96 1 6 C-1.875 5.6875 -1.875 5.6875 -5 5 C-5.66 4.01 -6.32 3.02 -7 2 C-2.25 0 -2.25 0 0 0 Z " fill="#15273F" transform="translate(526,174)"/>
<path d="M0 0 C0.33 0 0.66 0 1 0 C1.05391993 1.79133978 1.09275571 3.58313899 1.125 5.375 C1.14820313 6.37273437 1.17140625 7.37046875 1.1953125 8.3984375 C1 11 1 11 -1 13 C-3.125 12.625 -3.125 12.625 -5 12 C-5 13.98 -5 15.96 -5 18 C-5.33 18 -5.66 18 -6 18 C-6 15.36 -6 12.72 -6 10 C-4.02 10 -2.04 10 0 10 C0 6.7 0 3.4 0 0 Z " fill="#7B818C" transform="translate(537,177)"/>
<path d="M0 0 C3.80718548 0.72753266 7.55485569 1.61276572 11.3125 2.5625 C12.38113281 2.83191406 13.44976562 3.10132813 14.55078125 3.37890625 C15.76314453 3.68634766 15.76314453 3.68634766 17 4 C17 4.33 17 4.66 17 5 C14.72858891 4.88597936 12.45785448 4.75841495 10.1875 4.625 C8.92292969 4.55539062 7.65835938 4.48578125 6.35546875 4.4140625 C3 4 3 4 0 2 C0 1.34 0 0.68 0 0 Z " fill="#627BE2" transform="translate(116,271)"/>
<path d="M0 0 C1.45922693 0.11409593 2.91740598 0.24165544 4.375 0.375 C5.59316406 0.47941406 5.59316406 0.47941406 6.8359375 0.5859375 C9 1 9 1 11 3 C7.98968256 3.93423645 7.13349732 4.04449911 4 3 C3.01 3.99 2.02 4.98 1 6 C0.34 5.67 -0.32 5.34 -1 5 C-0.67 3.35 -0.34 1.7 0 0 Z " fill="#4B76E6" transform="translate(120,222)"/>
<path d="M0 0 C0.66 0.66 1.32 1.32 2 2 C1.071875 2.4021875 1.071875 2.4021875 0.125 2.8125 C-2.2995233 3.95556848 -2.2995233 3.95556848 -4 7 C-5.32 6.67 -6.64 6.34 -8 6 C-8 5.01 -8 4.02 -8 3 C-5.36 2.01 -2.72 1.02 0 0 Z " fill="#3A4554" transform="translate(419,214)"/>
<path d="M0 0 C-0.33 1.32 -0.66 2.64 -1 4 C-0.01 4.33 0.98 4.66 2 5 C2 5.66 2 6.32 2 7 C0.68 6.67 -0.64 6.34 -2 6 C-2 5.34 -2 4.68 -2 4 C-3.2065625 3.566875 -3.2065625 3.566875 -4.4375 3.125 C-7 2 -7 2 -8 0 C-2.25 -1.125 -2.25 -1.125 0 0 Z " fill="#4E83E5" transform="translate(100,260)"/>
<path d="M0 0 C2.31 0 4.62 0 7 0 C7 2.64 7 5.28 7 8 C5.68 8 4.36 8 3 8 C3.33 5.69 3.66 3.38 4 1 C2.68 0.67 1.36 0.34 0 0 Z " fill="#14202F" transform="translate(551,220)"/>
<path d="M0 0 C1.66666667 0 3.33333333 0 5 0 C4 3 4 3 1 5 C0.41651248 7.6556728 0.41651248 7.6556728 0.3125 10.625 C0.21388672 12.12933594 0.21388672 12.12933594 0.11328125 13.6640625 C0.05720703 14.82035156 0.05720703 14.82035156 0 16 C-0.33 16 -0.66 16 -1 16 C-1 1 -1 1 0 0 Z " fill="#5B6672" transform="translate(292,211)"/>
<path d="M0 0 C0.99 0.33 1.98 0.66 3 1 C3 1.99 3 2.98 3 4 C3.66 4.33 4.32 4.66 5 5 C5 5.99 5 6.98 5 8 C4.01 7.67 3.02 7.34 2 7 C1.01 7.33 0.02 7.66 -1 8 C-1 7.01 -1 6.02 -1 5 C-1.66 4.34 -2.32 3.68 -3 3 C-2.34 3 -1.68 3 -1 3 C-0.67 2.01 -0.34 1.02 0 0 Z " fill="#152439" transform="translate(455,189)"/>
<path d="M0 0 C0.66 0.33 1.32 0.66 2 1 C1.01 3.31 0.02 5.62 -1 8 C-2.65 8 -4.3 8 -6 8 C-4.73058503 4.08597051 -3.48832306 2.20927127 0 0 Z " fill="#47525E" transform="translate(243,173)"/>
<path d="M0 0 C2.97 1.98 2.97 1.98 6 4 C5.34 5.65 4.68 7.3 4 9 C3.34 9 2.68 9 2 9 C0.50178941 5.62902617 0 3.79557881 0 0 Z " fill="#A444E0" transform="translate(198,174)"/>
<path d="M0 0 C2.64 0.33 5.28 0.66 8 1 C3.26275446 3.45634954 -0.56500474 5.31057116 -6 5 C-6 4.34 -6 3.68 -6 3 C-4.02 2.67 -2.04 2.34 0 2 C0 1.34 0 0.68 0 0 Z " fill="#687AE0" transform="translate(124,137)"/>
<path d="M0 0 C-0.33 0.99 -0.66 1.98 -1 3 C-4.38274266 4.12758089 -5.76778223 3.81750262 -9.1875 3.0625 C-10.08855469 2.86785156 -10.98960937 2.67320312 -11.91796875 2.47265625 C-12.60503906 2.31667969 -13.29210937 2.16070312 -14 2 C-14 1.67 -14 1.34 -14 1 C-9.27616037 0.34843591 -4.78025483 -0.11950637 0 0 Z " fill="#7276E5" transform="translate(152,260)"/>
<path d="M0 0 C1.32 0 2.64 0 4 0 C3.4409112 3.24271506 2.5867822 4.93057424 0 7 C-0.66 7 -1.32 7 -2 7 C-2.33 6.01 -2.66 5.02 -3 4 C-1.8125 1.8125 -1.8125 1.8125 0 0 Z " fill="#186DFC" transform="translate(94,243)"/>
<path d="M0 0 C1 3 1 3 0.00390625 5.26171875 C-0.47175781 6.06222656 -0.94742187 6.86273438 -1.4375 7.6875 C-2.14712891 8.89986328 -2.14712891 8.89986328 -2.87109375 10.13671875 C-3.24363281 10.75160156 -3.61617188 11.36648437 -4 12 C-4.99 11.67 -5.98 11.34 -7 11 C-6.1875 9.0625 -6.1875 9.0625 -5 7 C-4.01 6.67 -3.02 6.34 -2 6 C-1.32843384 4.06381575 -1.32843384 4.06381575 -1 2 C-0.67 1.34 -0.34 0.68 0 0 Z " fill="#5C6571" transform="translate(434,208)"/>
<path d="M0 0 C2.46800047 1.15173355 4.04783565 2.04783565 6 4 C6 4.99 6 5.98 6 7 C5.01 7.33 4.02 7.66 3 8 C2.34 7.34 1.68 6.68 1 6 C1.33 5.34 1.66 4.68 2 4 C1.01 4.33 0.02 4.66 -1 5 C-1 4.34 -1 3.68 -1 3 C-0.34 3 0.32 3 1 3 C0.67 2.01 0.34 1.02 0 0 Z " fill="#4D49EB" transform="translate(147,192)"/>
<path d="M0 0 C0.66 0.33 1.32 0.66 2 1 C1.67 2.98 1.34 4.96 1 7 C-0.32 6.67 -1.64 6.34 -3 6 C-2.625 3.5625 -2.625 3.5625 -2 1 C-1.34 0.67 -0.68 0.34 0 0 Z M-4 6 C-4 9 -4 9 -4 9 Z " fill="#0B7DF3" transform="translate(85,168)"/>
<path d="M0 0 C1.32 0 2.64 0 4 0 C3.34 1.32 2.68 2.64 2 4 C1.34 4 0.68 4 0 4 C-0.66 5.32 -1.32 6.64 -2 8 C-2.66 8 -3.32 8 -4 8 C-4 6.68 -4 5.36 -4 4 C-3.01 4 -2.02 4 -1 4 C-0.67 2.68 -0.34 1.36 0 0 Z " fill="#4F85E2" transform="translate(102,149)"/>
<path d="M0 0 C1.75043149 0.79071216 3.50032778 1.58260918 5.25 2.375 C6.71179688 3.03628906 6.71179688 3.03628906 8.203125 3.7109375 C10.49311839 4.76638138 12.75366601 5.85543935 15 7 C9.73946963 7.31563182 6.55426184 6.66590937 2 4 C2 3.34 2 2.68 2 2 C1.34 2 0.68 2 0 2 C0 1.34 0 0.68 0 0 Z " fill="#7086E3" transform="translate(111,252)"/>
<path d="M0 0 C0.33 0.99 0.66 1.98 1 3 C-2.83325617 5.70582788 -5.32538149 6.32613618 -10 6 C-6.87567603 3.47650757 -3.61939504 1.72743854 0 0 Z " fill="#7B68E1" transform="translate(171,252)"/>
<path d="M0 0 C3 3.75 3 3.75 3 6 C6.3 6.66 9.6 7.32 13 8 C13 8.33 13 8.66 13 9 C6.74831461 10.20224719 6.74831461 10.20224719 3.6875 9.375 C1.40823751 7.51782315 0.81797562 5.79475005 0 3 C0 2.01 0 1.02 0 0 Z " fill="#75A5EB" transform="translate(84,217)"/>
<path d="M0 0 C4.29 0 8.58 0 13 0 C11 5 11 5 9 6 C9 5.01 9 4.02 9 3 C4.545 2.01 4.545 2.01 0 1 C0 0.67 0 0.34 0 0 Z " fill="#616972" transform="translate(306,187)"/>
<path d="M0 0 C2.31 0 4.62 0 7 0 C7 0.99 7 1.98 7 3 C4.35261084 4.4606285 3.10551666 5 0 5 C0 3.33333333 0 1.66666667 0 0 Z " fill="#3254E5" transform="translate(120,259)"/>
<path d="M0 0 C0 0.66 0 1.32 0 2 C-4.29 2 -8.58 2 -13 2 C-9.31563748 -1.68436252 -4.79080997 -1.26815558 0 0 Z " fill="#424A56" transform="translate(263,228)"/>
<path d="M0 0 C1.98 0 3.96 0 6 0 C6.33 0.66 6.66 1.32 7 2 C6.0625 4.625 6.0625 4.625 5 7 C4.34 6.67 3.68 6.34 3 6 C2.375 3.9375 2.375 3.9375 2 2 C1.34 2 0.68 2 0 2 C0 1.34 0 0.68 0 0 Z " fill="#182742" transform="translate(386,213)"/>
<path d="M0 0 C4.51478398 0.53115106 7.34666857 2.36620292 11 5 C8.45297384 6.27351308 7.5717055 5.80191925 4.875 5.0625 C4.15054687 4.86785156 3.42609375 4.67320312 2.6796875 4.47265625 C2.12539063 4.31667969 1.57109375 4.16070312 1 4 C0.67 2.68 0.34 1.36 0 0 Z " fill="#596371" transform="translate(263,196)"/>
<path d="M0 0 C0.99 0.33 1.98 0.66 3 1 C2.25 3.9375 2.25 3.9375 1 7 C-1.125 7.875 -1.125 7.875 -3 8 C-1.125 1.125 -1.125 1.125 0 0 Z " fill="#0F7DF2" transform="translate(77,155)"/>
<path d="M0 0 C8 0.92307692 8 0.92307692 11 3 C11.33 3.99 11.66 4.98 12 6 C6 4 6 4 0 2 C0 1.34 0 0.68 0 0 Z " fill="#8E72DD" transform="translate(159,139)"/>
<path d="M0 0 C3.44852854 1.14950951 4.3569424 1.80036151 6 5 C5.1875 8.25 5.1875 8.25 4 11 C3.87625 10.401875 3.7525 9.80375 3.625 9.1875 C2.58785539 5.55749388 1.1177637 4.07850913 -2 2 C-1.34 1.34 -0.68 0.68 0 0 Z " fill="#435360" transform="translate(261,205)"/>
<path d="M0 0 C4.57478244 2.0214155 7.61831569 4.31993178 11 8 C10.67 8.66 10.34 9.32 10 10 C9.566875 9.525625 9.13375 9.05125 8.6875 8.5625 C6.97690387 6.76313043 6.97690387 6.76313043 4 6 C1.8125 4.0625 1.8125 4.0625 0 2 C0 1.34 0 0.68 0 0 Z " fill="#7579DE" transform="translate(142,186)"/>
<path d="M0 0 C0.33 0 0.66 0 1 0 C1.36190476 5.42857143 1.36190476 5.42857143 -0.1875 7.875 C-2.56036279 9.34781139 -4.25913944 9.22223194 -7 9 C-6.21625 8.2575 -5.4325 7.515 -4.625 6.75 C-2.43495469 4.45566682 -1.17268614 2.87841142 0 0 Z " fill="#4E5560" transform="translate(335,173)"/>
<path d="M0 0 C2.475 0.495 2.475 0.495 5 1 C5.38922918 2.28745036 5.76098036 3.58019597 6.125 4.875 C6.33382812 5.59429687 6.54265625 6.31359375 6.7578125 7.0546875 C6.83773437 7.69664062 6.91765625 8.33859375 7 9 C6.34 9.66 5.68 10.32 5 11 C3.35 7.37 1.7 3.74 0 0 Z " fill="#B56FE7" transform="translate(192,165)"/>
<path d="M0 0 C2.91227269 3.28804981 4.49701212 5.59885603 5 10 C2.09197539 7.78071806 0.04687238 6.07030857 -2 3 C-1.34 3 -0.68 3 0 3 C0 2.01 0 1.02 0 0 Z " fill="#AE60E2" transform="translate(199,155)"/>
<path d="M0 0 C2.64 0.33 5.28 0.66 8 1 C7.34 1.66 6.68 2.32 6 3 C4.68 3 3.36 3 2 3 C2 3.66 2 4.32 2 5 C0.68 4.67 -0.64 4.34 -2 4 C-1.34 3.67 -0.68 3.34 0 3 C0 2.01 0 1.02 0 0 Z " fill="#546AEA" transform="translate(127,259)"/>
<path d="M0 0 C0.99 1.32 1.98 2.64 3 4 C-1.95 4 -6.9 4 -12 4 C-10.68 3.01 -9.36 2.02 -8 1 C-8 1.66 -8 2.32 -8 3 C-5.36 2.67 -2.72 2.34 0 2 C0 1.34 0 0.68 0 0 Z " fill="#586169" transform="translate(318,225)"/>
<path d="M0 0 C4.8 3.44615385 4.8 3.44615385 5.8125 6.25 C5.874375 6.8275 5.93625 7.405 6 8 C4.68 8 3.36 8 2 8 C0.25 6 0.25 6 -1 4 C-0.34 4 0.32 4 1 4 C0.67 2.68 0.34 1.36 0 0 Z " fill="#5C6975" transform="translate(269,174)"/>
<path d="M0 0 C0.33 0 0.66 0 1 0 C1.4375 2.125 1.4375 2.125 1 5 C-1.12689146 7.276147 -3.5023433 9.1458722 -6 11 C-6 7.41584854 -5.21108216 6.58796261 -3.0625 3.8125 C-2.51722656 3.09707031 -1.97195312 2.38164062 -1.41015625 1.64453125 C-0.94480469 1.10183594 -0.47945313 0.55914062 0 0 Z " fill="#599BE5" transform="translate(82,146)"/>
<path d="M0 0 C-0.99 1.485 -0.99 1.485 -2 3 C-2.99 2.67 -3.98 2.34 -5 2 C-5.33 2.66 -5.66 3.32 -6 4 C-6.33 3.01 -6.66 2.02 -7 1 C-7.66 0.67 -8.32 0.34 -9 0 C-5.67465243 -1.10844919 -3.37817425 -0.84454356 0 0 Z " fill="#6F64E7" transform="translate(162,259)"/>
<path d="M0 0 C2.3125 -0.1875 2.3125 -0.1875 5 0 C5.99 0.99 6.98 1.98 8 3 C4.04 3 0.08 3 -4 3 C-2.68 2.67 -1.36 2.34 0 2 C0 1.34 0 0.68 0 0 Z " fill="#4B5460" transform="translate(404,227)"/>
<path d="M0 0 C0.33 0.99 0.66 1.98 1 3 C-1.375 6.1875 -1.375 6.1875 -4 9 C-4.33 9 -4.66 9 -5 9 C-5.3125 6.1875 -5.3125 6.1875 -5 3 C-2.5 1.125 -2.5 1.125 0 0 Z " fill="#384251" transform="translate(313,192)"/>
<path d="M0 0 C2.31 1.98 4.62 3.96 7 6 C5.02 6.99 5.02 6.99 3 8 C2.34 7.67 1.68 7.34 1 7 C1.33 5.68 1.66 4.36 2 3 C1.34 3 0.68 3 0 3 C0 2.01 0 1.02 0 0 Z " fill="#A865E6" transform="translate(188,142)"/>
<path d="M0 0 C0.66 0.33 1.32 0.66 2 1 C-0.05127045 4.9945793 -1.88912162 7.10267152 -6 9 C-6.66 8.67 -7.32 8.34 -8 8 C-6.37660195 6.29115995 -4.70680947 4.62553283 -3 3 C-2.34 3 -1.68 3 -1 3 C-0.67 2.01 -0.34 1.02 0 0 Z " fill="#69A2E8" transform="translate(91,137)"/>
<path d="M0 0 C0.99 0 1.98 0 3 0 C4.6875 2 4.6875 2 6 4 C4.02 4.66 2.04 5.32 0 6 C-1.24546405 3.50907189 -0.7767578 2.58919267 0 0 Z " fill="#2E5BF6" transform="translate(116,257)"/>
<path d="M0 0 C1.98 0 3.96 0 6 0 C6.33 1.65 6.66 3.3 7 5 C6.34 5 5.68 5 5 5 C5 4.34 5 3.68 5 3 C3.35 2.67 1.7 2.34 0 2 C0 1.34 0 0.68 0 0 Z " fill="#2D5DEC" transform="translate(121,189)"/>
<path d="M0 0 C3.3 0.33 6.6 0.66 10 1 C8 3 8 3 4.375 3.125 C3.26125 3.08375 2.1475 3.0425 1 3 C0.67 2.01 0.34 1.02 0 0 Z " fill="#333C49" transform="translate(517,179)"/>
<path d="M0 0 C0.99 0.33 1.98 0.66 3 1 C3 2.65 3 4.3 3 6 C1.68 6.33 0.36 6.66 -1 7 C-1.04254356 5.00045254 -1.04080783 2.99958364 -1 1 C-0.67 0.67 -0.34 0.34 0 0 Z " fill="#805BD4" transform="translate(166,156)"/>
<path d="M0 0 C2.97 0.495 2.97 0.495 6 1 C3.47211993 3.79872437 1.79588866 5.45773019 -2 6 C-2.33 5.34 -2.66 4.68 -3 4 C-1.68 4 -0.36 4 1 4 C0.67 2.68 0.34 1.36 0 0 Z " fill="#6A92EB" transform="translate(112,228)"/>
<path d="M0 0 C4.93928888 -0.3367697 5.78492722 -0.16130459 10 3 C6.37 3 2.74 3 -1 3 C-0.67 2.01 -0.34 1.02 0 0 Z " fill="#444E59" transform="translate(487,227)"/>
<path d="M0 0 C-0.61875 0.268125 -1.2375 0.53625 -1.875 0.8125 C-4.2995233 1.95556848 -4.2995233 1.95556848 -6 5 C-6.99 4.67 -7.98 4.34 -9 4 C-9 3.01 -9 2.02 -9 1 C-6.04335481 -0.4783226 -3.25770263 -0.06032783 0 0 Z " fill="#3F4655" transform="translate(244,211)"/>
<path d="M0 0 C0.66 0 1.32 0 2 0 C2.66 2.31 3.32 4.62 4 7 C3.01 7.99 2.02 8.98 1 10 C0.67 6.7 0.34 3.4 0 0 Z " fill="#1D2B3E" transform="translate(421,185)"/>
<path d="M0 0 C0 0.99 0 1.98 0 3 C-1.75 4.75 -1.75 4.75 -4 6 C-5.32 5.67 -6.64 5.34 -8 5 C-4.04 2.525 -4.04 2.525 0 0 Z " fill="#5890E3" transform="translate(101,131)"/>
<path d="M0 0 C0.99 0.33 1.98 0.66 3 1 C2.01 1.33 1.02 1.66 0 2 C0 1.34 0 0.68 0 0 Z M-7 1 C-5.02 1 -3.04 1 -1 1 C-1 1.99 -1 2.98 -1 4 C-3.31 3.67 -5.62 3.34 -8 3 C-7.67 2.34 -7.34 1.68 -7 1 Z " fill="#2263F3" transform="translate(109,131)"/>
<path d="M0 0 C0 0.66 0 1.32 0 2 C-3.78187881 3.83691257 -5.94568308 4.15837626 -10 3 C-6.41600853 0.61067235 -4.26804999 0 0 0 Z " fill="#5D75DD" transform="translate(120,124)"/>
<path d="M0 0 C1.98 0 3.96 0 6 0 C4.02579865 2.52259061 3.03254358 2.9929808 -0.1875 3.6875 C-1.5796875 3.8421875 -1.5796875 3.8421875 -3 4 C-2.67 3.34 -2.34 2.68 -2 2 C-1.34 2 -0.68 2 0 2 C0 1.34 0 0.68 0 0 Z " fill="#836FDF" transform="translate(167,267)"/>
<path d="M0 0 C0.99 0.33 1.98 0.66 3 1 C1.02 3.97 1.02 3.97 -1 7 C-2.32 5.35 -3.64 3.7 -5 2 C-3.68 2.33 -2.36 2.66 -1 3 C-0.67 2.01 -0.34 1.02 0 0 Z " fill="#1276F5" transform="translate(88,246)"/>
<path d="M0 0 C0.33 0.99 0.66 1.98 1 3 C-1.77280706 6.08089673 -4.06326356 7.68775452 -8 9 C-7.04882866 7.8274869 -6.08882991 6.66212985 -5.125 5.5 C-4.32449219 4.52546875 -4.32449219 4.52546875 -3.5078125 3.53125 C-2.76144531 2.77328125 -2.76144531 2.77328125 -2 2 C-1.34 2 -0.68 2 0 2 C0 1.34 0 0.68 0 0 Z " fill="#AC8DE2" transform="translate(188,237)"/>
<path d="M0 0 C0.99 0 1.98 0 3 0 C3 2.64 3 5.28 3 8 C2.34 8 1.68 8 1 8 C0.67 5.36 0.34 2.72 0 0 Z " fill="#454C5D" transform="translate(274,208)"/>
<path d="M0 0 C0.66 1.32 1.32 2.64 2 4 C0.35 5.65 -1.3 7.3 -3 9 C-3.33 7.35 -3.66 5.7 -4 4 C-2.68 4.33 -1.36 4.66 0 5 C0 3.35 0 1.7 0 0 Z " fill="#7B79EA" transform="translate(151,213)"/>
<path d="M0 0 C0.99 0.66 1.98 1.32 3 2 C0.06171403 4.50298434 -2.17902761 5.46930939 -6 6 C-4 4 -2 2 0 0 Z " fill="#7196E7" transform="translate(111,216)"/>
<path d="M0 0 C2.97 0 5.94 0 9 0 C7.3125 1.5625 7.3125 1.5625 5 3 C2.25 2.6875 2.25 2.6875 0 2 C0 1.34 0 0.68 0 0 Z " fill="#263140" transform="translate(538,177)"/>
<path d="M0 0 C0.66 0.33 1.32 0.66 2 1 C2.75 3.375 2.75 3.375 3 6 C2.01 7.485 2.01 7.485 1 9 C0.67 7.02 0.34 5.04 0 3 C-0.66 3 -1.32 3 -2 3 C-1 1 -1 1 0 0 Z " fill="#57646F" transform="translate(526,171)"/>
<path d="M0 0 C0.66 0.99 1.32 1.98 2 3 C1.01 4.98 0.02 6.96 -1 9 C-1.99 8.67 -2.98 8.34 -4 8 C-2.68 5.36 -1.36 2.72 0 0 Z " fill="#AC70E3" transform="translate(197,222)"/>
<path d="M0 0 C0.99 0.33 1.98 0.66 3 1 C3 1.66 3 2.32 3 3 C-0.63 3 -4.26 3 -8 3 C-5 1 -5 1 -2.3125 1.375 C-1.549375 1.58125 -0.78625 1.7875 0 2 C0 1.34 0 0.68 0 0 Z " fill="#333C48" transform="translate(289,226)"/>
<path d="M0 0 C0.66 0 1.32 0 2 0 C2.33 2.64 2.66 5.28 3 8 C1.35 7.67 -0.3 7.34 -2 7 C-1.34 6.01 -0.68 5.02 0 4 C0 2.68 0 1.36 0 0 Z " fill="#293245" transform="translate(462,190)"/>
<path d="M0 0 C2 0 2 0 4.125 1.875 C6 4 6 4 6 6 C4.68 6 3.36 6 2 6 C1.67 5.01 1.34 4.02 1 3 C0.34 2.34 -0.32 1.68 -1 1 C-0.67 0.67 -0.34 0.34 0 0 Z " fill="#444DEB" transform="translate(140,186)"/>
<path d="M0 0 C0.99 0 1.98 0 3 0 C2.67 2.97 2.34 5.94 2 9 C1.67 9 1.34 9 1 9 C0.67 6.03 0.34 3.06 0 0 Z " fill="#BE6EE8" transform="translate(200,183)"/>
<path d="M0 0 C0.66 0 1.32 0 2 0 C1.8125 1.875 1.8125 1.875 1 4 C-1.5625 5.25 -1.5625 5.25 -4 6 C-2.84826645 3.53199953 -1.95216435 1.95216435 0 0 Z " fill="#575D71" transform="translate(388,176)"/>
<path d="M0 0 C0.33 0.99 0.66 1.98 1 3 C0.01 4.485 0.01 4.485 -1 6 C-1.66 5.67 -2.32 5.34 -3 5 C-3.33 5.66 -3.66 6.32 -4 7 C-4 5.68 -4 4.36 -4 3 C-3.34 3 -2.68 3 -2 3 C-2 2.34 -2 1.68 -2 1 C-1.34 0.67 -0.68 0.34 0 0 Z " fill="#0E82EB" transform="translate(71,170)"/>
<path d="M0 0 C2.475 0.99 2.475 0.99 5 2 C5 2.99 5 3.98 5 5 C3.35 4.67 1.7 4.34 0 4 C0 2.68 0 1.36 0 0 Z " fill="#4D71E2" transform="translate(105,249)"/>
<path d="M0 0 C0.66 0 1.32 0 2 0 C2.99 2.31 3.98 4.62 5 7 C4.01 7 3.02 7 2 7 C0.5393715 4.35261084 0 3.10551666 0 0 Z " fill="#579FE5" transform="translate(70,231)"/>
<path d="M0 0 C0.66 0 1.32 0 2 0 C0.25 5.75 0.25 5.75 -2 8 C-2.125 5.125 -2.125 5.125 -2 2 C-1.34 1.34 -0.68 0.68 0 0 Z " fill="#A85DE2" transform="translate(205,228)"/>
<path d="M0 0 C0.99 0.33 1.98 0.66 3 1 C3 2.65 3 4.3 3 6 C2.01 6 1.02 6 0 6 C-1.125 2.25 -1.125 2.25 0 0 Z " fill="#2C8DEB" transform="translate(69,225)"/>
<path d="M0 0 C1.65 0.33 3.3 0.66 5 1 C5 1.99 5 2.98 5 4 C3.35 3.67 1.7 3.34 0 3 C0 2.01 0 1.02 0 0 Z " fill="#3E4754" transform="translate(542,225)"/>
<path d="M0 0 C0.33 0.99 0.66 1.98 1 3 C1.99 3.33 2.98 3.66 4 4 C1.69 4.33 -0.62 4.66 -3 5 C-3 4.01 -3 3.02 -3 2 C-2.01 1.34 -1.02 0.68 0 0 Z " fill="#354555" transform="translate(416,224)"/>
<path d="M0 0 C1.9375 0.375 1.9375 0.375 4 1 C5 3 5 3 6 6 C3.37812506 4.95125002 2.20628639 4.35068687 0.75 1.875 C0.5025 1.25625 0.255 0.6375 0 0 Z " fill="#606675" transform="translate(383,218)"/>
<path d="M0 0 C0.66 0 1.32 0 2 0 C2 2.31 2 4.62 2 7 C1.01 6.67 0.02 6.34 -1 6 C-0.67 4.02 -0.34 2.04 0 0 Z " fill="#7750E2" transform="translate(167,185)"/>
<path d="M0 0 C1.65 0 3.3 0 5 0 C5.33 1.32 5.66 2.64 6 4 C4.68 4.33 3.36 4.66 2 5 C2.66 4.67 3.32 4.34 4 4 C4 3.34 4 2.68 4 2 C2.68 1.67 1.36 1.34 0 1 C0 0.67 0 0.34 0 0 Z " fill="#AD7CE0" transform="translate(179,172)"/>
<path d="M0 0 C0.97110486 3.02121511 1.13617383 5.00463263 0 8 C-0.99 8.495 -0.99 8.495 -2 9 C-2.25 3.375 -2.25 3.375 0 0 Z " fill="#4394EA" transform="translate(74,157)"/>
<path d="M0 0 C2.475 0.99 2.475 0.99 5 2 C5 2.66 5 3.32 5 4 C4.34 4 3.68 4 3 4 C2.34 5.32 1.68 6.64 1 8 C0.67 5.36 0.34 2.72 0 0 Z " fill="#5095EE" transform="translate(89,161)"/>
</svg>
